<svg xmlns="http://www.w3.org/2000/svg" width="164" height="50" viewBox="0 0 163.32 49.1"><defs><style>.cls-1{fill:#00809f;}.cls-2{fill:#434347;}</style></defs><title>Element 1</title><g id="Ebene_2" data-name="Ebene 2"><g id="Ebene_1-2" data-name="Ebene 1"><path class="cls-1" d="M2.63,16.2l-1.25-1C.48,14.53,0,14.85,0,16L.1,36.4a2.71,2.71,0,0,0,1.22,2.12l17.6,10.28c1,.57,1.54.32,1.38-.8l-.22-1.59c0-.2-.25-.55-1.09-1.11L5.29,36.23a2.71,2.71,0,0,1-1.22-2.12l-1-16.41c-.06-1-.27-1.38-.43-1.51m38.48-5.8L23.4.29A2.71,2.71,0,0,0,21,.29L3.25,10.39c-1,.6-1,1.17,0,1.59l1.49.6c.19.07.6.06,1.5-.39L21,4.87a2.72,2.72,0,0,1,2.45,0L38.12,12.2c.9.45,1.34.46,1.52.38L41.11,12c1-.43,1-1,0-1.59M44.36,16c0-1.17-.49-1.49-1.38-.8l-1.27,1c-.16.13-.36.49-.41,1.5l-1,16.41a2.71,2.71,0,0,1-1.22,2.12L25.36,45.31c-.84.55-1.06.93-1.09,1.13,0,0-.07.45-.22,1.57s.36,1.37,1.38.8L43,38.52a2.71,2.71,0,0,0,1.22-2.12Z"/><path class="cls-2" d="M150.55,25.82c.49-3,2.56-4.68,5.12-4.68,2.25,0,4.12,1.52,4.22,4.68ZM147,28c0,5.44,3.77,9.61,9.27,9.61A10.19,10.19,0,0,0,163,35l-1.38-2.57a8.17,8.17,0,0,1-5.19,2.14c-3.12,0-5.85-2-6-6.06h12.77s.1-1.05.1-1.52c0-4.75-2.63-8.6-7.58-8.6S147,22.12,147,28m-7.47,4.17c0,4.61,2.8,5.15,4.71,5.15a9,9,0,0,0,1.11-.07V34.09a5.12,5.12,0,0,1-.59,0c-1,0-1.87-.4-1.87-2.61v-20h-3.36Zm-16.61,5h3.36V28.5h2.53l5.26,8.63H138L131.5,26.94v-.07l5.81-8.09H133.5l-4.77,6.75h-2.46v-14h-3.36ZM104.58,28c0,5.51,3.88,9.61,9.38,9.61a9.41,9.41,0,0,0,7-2.94l-1.35-2.57a7.81,7.81,0,0,1-5.4,2.47c-3.63,0-6.19-2.86-6.19-6.6s2.56-6.53,6.09-6.53a7,7,0,0,1,4.84,2.1L120.53,21A8.7,8.7,0,0,0,114,18.35c-5.5,0-9.38,4.17-9.38,9.61M86.69,37.14H90v-8.6a9.06,9.06,0,0,1,.28-2.47,5.79,5.79,0,0,1,5.54-4.5c2.8,0,3.32,2,3.32,4.61v11h3.36V25.39c0-4.68-1.9-7-6-7a7.12,7.12,0,0,0-6.57,4.21h-.07s.07-.62.07-1.34V18.78H86.69Zm-7.34,0h3.36V18.78H79.35Zm0-22H82.7V11.53H79.31Zm-12.6,22h3.36V29.63a11.67,11.67,0,0,1,.42-3.3c.8-2.72,2.77-4.32,4.91-4.32a4.66,4.66,0,0,1,1,.11V18.64a5.65,5.65,0,0,0-.86-.07c-2.7,0-4.74,2.1-5.54,4.79H69.9S70,22.74,70,22V18.78H66.72ZM55.06,30.43c0,6.13,4.46,6.86,6.71,6.86a8.75,8.75,0,0,0,1.18-.07V34.09a3.85,3.85,0,0,1-.8.07c-1.28,0-3.74-.47-3.74-4.13V21.87h4.22V19H58.41v-5.3H55.06Z"/></g></g></svg>
