<?xml version="1.0" encoding="utf-8"?>
<!DOCTYPE svg PUBLIC "-//W3C//DTD SVG 1.1//EN" "http://www.w3.org/Graphics/SVG/1.1/DTD/svg11.dtd">
<svg version="1.1" id="Ebene_1" xmlns="http://www.w3.org/2000/svg" xmlns:xlink="http://www.w3.org/1999/xlink" x="0px" y="0px"
	 width="186.395px" height="59.017px" viewBox="0 0 186.395 59.017" enable-background="new 0 0 186.395 59.017"
	 xml:space="preserve">
<path fill="#4B71B7" d="M12.141,37.771L18.97,5.564l6.914,32.207H12.141z M23.944,0h-9.696L0,59.017h7.504l3.288-14.923h16.44
	l3.204,14.923h7.504L23.944,0z"/>
<path fill="#4B71B7" d="M59.063,52.694h-5.358c-1.068,0-1.827-0.196-2.276-0.591c-0.451-0.392-0.674-1.038-0.674-1.938V0H37.049
	v6.323h6.539v44.263c0,2.923,0.717,5.059,2.15,6.407c1.433,1.349,3.105,2.023,5.017,2.023h8.309V52.694z"/>
<path fill="#4B71B7" d="M79.894,52.694h-5.358c-1.068,0-1.827-0.196-2.276-0.591c-0.45-0.392-0.674-1.038-0.674-1.938V0H57.879
	v6.323h6.539v44.263c0,2.923,0.717,5.059,2.15,6.407c1.433,1.349,3.105,2.023,5.017,2.023h8.309V52.694z"/>
<path fill="#4B71B7" d="M110.045,38.615c0-4.891-1.827-8.348-5.48-10.371c3.091-2.192,4.638-5.451,4.638-9.78v-5.311
	C109.202,4.384,104.367,0,94.701,0h-9.78v6.323h10.791c2.136,0,3.695,0.478,4.68,1.433c0.982,0.957,1.476,2.502,1.476,4.637v6.914
	c0,1.855-0.59,3.345-1.771,4.468c-1.181,1.125-2.643,1.686-4.385,1.686h-8.178v6.323h9.021c1.854,0,3.343,0.548,4.468,1.644
	c1.124,1.096,1.687,2.571,1.687,4.427v8.684c0,2.136-0.505,3.696-1.518,4.679c-1.012,0.984-2.586,1.476-4.721,1.476H84.921v6.323
	h10.791c5.059,0,8.712-1.054,10.961-3.162c2.247-2.107,3.372-5.493,3.372-10.159V38.615z"/>
<path fill="#4B71B7" d="M148.781,13.152c0-4.665-1.294-8.023-3.879-10.075C142.317,1.026,138.495,0,133.436,0H117.08v59.017h17.368
	c5.113,0,8.781-1.012,11.003-3.035c2.219-2.023,3.33-5.451,3.33-10.286V13.152z M139.928,51.218
	c-1.011,0.984-2.585,1.476-4.721,1.476h-10.792V6.323h10.877c1.854,0,3.343,0.548,4.468,1.644c1.124,1.096,1.686,2.571,1.686,4.426
	V46.54C141.446,48.675,140.939,50.236,139.928,51.218z"/>
<path fill="#4B71B7" d="M186.395,13.152C186.395,4.384,181.56,0,171.894,0h-15.936v59.017h7.336V36.084h8.768
	c9.555,0,14.333-4.439,14.333-13.321V13.152z M177.584,28.286c-0.983,0.984-2.544,1.475-4.679,1.475h-9.611V6.323h9.611
	c2.135,0,3.695,0.478,4.679,1.433c0.983,0.957,1.476,2.502,1.476,4.637v11.213C179.06,25.744,178.567,27.303,177.584,28.286z"/>
</svg>
