<svg xmlns="http://www.w3.org/2000/svg" xmlns:xlink="http://www.w3.org/1999/xlink" viewBox="0 0 159.59 27.47"><defs><style>.cls-1{fill:#101531;}.cls-2{fill:url(#linear-gradient);}.cls-3{fill:#005ea5;}.cls-4{fill:#0078e2;}</style><linearGradient id="linear-gradient" x1="32.14" y1="3.29" x2="25.72" y2="14.17" gradientUnits="userSpaceOnUse"><stop offset="0" stop-color="#0078e2"/><stop offset="1" stop-color="#005ea5"/></linearGradient></defs><title>Asset 5</title><g id="Layer_2" data-name="Layer 2"><g id="Layer_1-2" data-name="Layer 1"><path class="cls-1" d="M48.17,24.65v0c0-1,.81-1.5,2-1.5a5.21,5.21,0,0,1,1.43.19v-.16c0-.83-.51-1.27-1.38-1.27a3.24,3.24,0,0,0-1.42.35l-.21-.57a3.8,3.8,0,0,1,1.7-.39,2,2,0,0,1,1.5.51,1.83,1.83,0,0,1,.48,1.36V26h-.67v-.7a2,2,0,0,1-1.68.8A1.57,1.57,0,0,1,48.17,24.65Zm3.43-.36v-.45a4.8,4.8,0,0,0-1.37-.2c-.87,0-1.36.38-1.36,1v0c0,.59.54.93,1.17.93A1.41,1.41,0,0,0,51.6,24.29Z"/><path class="cls-1" d="M56.05,25.4l.35-.49A2.69,2.69,0,0,0,58,25.5c.56,0,1-.28,1-.73v0c0-.47-.55-.65-1.16-.82s-1.54-.46-1.54-1.32h0a1.41,1.41,0,0,1,1.59-1.34,3.16,3.16,0,0,1,1.67.52l-.32.52a2.59,2.59,0,0,0-1.37-.45c-.55,0-.9.29-.9.67v0c0,.44.57.61,1.19.8s1.5.5,1.5,1.34h0c0,.89-.73,1.4-1.66,1.4A3.15,3.15,0,0,1,56.05,25.4Z"/><path class="cls-1" d="M60.63,23.69v0a2.29,2.29,0,0,1,2.23-2.42A2.21,2.21,0,0,1,65,23.7a1.69,1.69,0,0,1,0,.23H61.33A1.62,1.62,0,0,0,63,25.5a1.91,1.91,0,0,0,1.46-.65l.44.38a2.39,2.39,0,0,1-1.92.88A2.31,2.31,0,0,1,60.63,23.69Zm3.7-.28a1.54,1.54,0,0,0-1.49-1.58,1.61,1.61,0,0,0-1.51,1.58Z"/><path class="cls-1" d="M66.24,21.34h.7v1.22a2,2,0,0,1,1.9-1.3V22h-.06a1.87,1.87,0,0,0-1.84,2.13V26h-.7Z"/><path class="cls-1" d="M69.43,21.34h.76l1.57,3.87,1.58-3.87h.74l-2,4.69h-.61Z"/><path class="cls-1" d="M75.19,19.56H76v.77h-.79Zm0,1.78h.7V26h-.7Z"/><path class="cls-1" d="M77.25,23.69h0a2.43,2.43,0,0,1,4.25-1.61l-.46.49a1.86,1.86,0,0,0-1.41-.7A1.72,1.72,0,0,0,78,23.66v0a1.75,1.75,0,0,0,1.71,1.81,1.9,1.9,0,0,0,1.42-.7l.44.42a2.4,2.4,0,0,1-4.28-1.52Z"/><path class="cls-1" d="M82.25,23.69v0a2.3,2.3,0,0,1,2.24-2.42,2.21,2.21,0,0,1,2.17,2.45,1.69,1.69,0,0,1,0,.23H83a1.61,1.61,0,0,0,1.63,1.57,2,2,0,0,0,1.47-.65l.43.38a2.36,2.36,0,0,1-1.91.88A2.32,2.32,0,0,1,82.25,23.69Zm3.7-.28a1.53,1.53,0,0,0-1.48-1.58A1.61,1.61,0,0,0,83,23.41Z"/><path class="cls-1" d="M91.26,25.11V26h-.69V19.43h.69v2.85a2.09,2.09,0,0,1,1.79-1,2.27,2.27,0,0,1,2.22,2.41v0a2.28,2.28,0,0,1-2.22,2.42A2.11,2.11,0,0,1,91.26,25.11Zm3.3-1.42v0a1.68,1.68,0,0,0-1.64-1.8,1.74,1.74,0,0,0-1.68,1.79v0a1.73,1.73,0,0,0,1.68,1.8A1.65,1.65,0,0,0,94.56,23.69Z"/><path class="cls-1" d="M99.8,21.34h.74l-2,4.81c-.4,1-.85,1.32-1.55,1.32a2,2,0,0,1-1-.24l.23-.55a1.46,1.46,0,0,0,.73.17c.42,0,.68-.21,1-.87l-2.12-4.64h.77l1.69,3.88Z"/><path class="cls-2" d="M39,22.55C34.9,25.39,28.81,19,24.51,14.69,18.32,8.5,12.86,7.54,11.16,7.4a13,13,0,0,1,24.46,3.11,7.8,7.8,0,0,1,4.81,5.14C40.64,16.5,41.81,20.53,39,22.55Z"/><path class="cls-3" d="M12,24.46c-5-5-9.51-6.59-12-7.09,0,.2,0,.41,0,.61a8.06,8.06,0,0,0,8.06,8.07h5.46C13,25.5,12.5,25,12,24.46Z"/><path class="cls-3" d="M8.56,16.34,7,16.36c.56.27,1.14.58,1.75.94C8.64,17,8.6,16.66,8.56,16.34Z"/><path class="cls-3" d="M11.05,10.41c-.31-.09-.6-.16-.87-.22h0l-.16,0c-.06.22-.12.46-.17.72A8.55,8.55,0,0,1,11.05,10.41Z"/><path class="cls-3" d="M4,12c.11-.41.23-.79.36-1.16a8.3,8.3,0,0,0-2,1.48C2.89,12.2,3.44,12.09,4,12Z"/><path class="cls-3" d="M25.46,22.46l1.36-.15c-.45-.43-.89-.88-1.33-1.34C25.49,21.46,25.48,22,25.46,22.46Z"/><path class="cls-3" d="M18.46,17.84c-.7,0-1.44,0-2.17-.05a35.1,35.1,0,0,0,.53,4.69,38.89,38.89,0,0,0,7.61.07c0-.82.05-1.72,0-2.66-.69-.74-1.36-1.48-2-2.17C21.4,17.78,20,17.84,18.46,17.84Z"/><path class="cls-3" d="M8.48,15.34a16.79,16.79,0,0,1,.06-2.59,27.61,27.61,0,0,0-3.74.17,13.57,13.57,0,0,0-.34,2.42l.24.07C6.09,15.36,7.67,15.35,8.48,15.34Z"/><path class="cls-3" d="M15.23,16.74c-.07-1.91,0-3.61,0-4.62A21.25,21.25,0,0,0,12.85,11,7.39,7.39,0,0,0,9.62,12.2a17,17,0,0,0-.12,3.34A15.31,15.31,0,0,0,15.23,16.74Z"/><path class="cls-3" d="M3.73,13.07a15.37,15.37,0,0,0-2.47.61,8.52,8.52,0,0,0-.48.83s0,.08,0,.08A13.41,13.41,0,0,1,3.48,15,14,14,0,0,1,3.73,13.07Z"/><path class="cls-3" d="M24.36,23.57c-1.12.08-2.36.14-3.65.14a32,32,0,0,1-3.66-.19A9.85,9.85,0,0,0,17.53,25c.35.35.7.72,1.06,1.06l0,0h5.31A10.74,10.74,0,0,0,24.36,23.57Z"/><path class="cls-3" d="M32.73,26a11.17,11.17,0,0,1-4.94-2.75c-.63.08-1.44.19-2.4.28a12,12,0,0,1-.46,2.57h7.79A.06.06,0,0,0,32.73,26Z"/><path class="cls-3" d="M14.72,22.09q.51.14,1,.24a36.2,36.2,0,0,1-.5-4.59,19.29,19.29,0,0,1-5.65-1,13.54,13.54,0,0,0,.26,1.36,30.67,30.67,0,0,1,4.66,3.86Z"/><path class="cls-3" d="M21.47,16.76a29.88,29.88,0,0,0-5.26-4.08c0,1.29,0,2.7,0,4.11C18.13,16.87,20,16.82,21.47,16.76Z"/><path class="cls-3" d="M5.06,11.88a28.72,28.72,0,0,1,3.57-.13l0,0c.1-.66.23-1.25.35-1.72l-.76-.07h-.2a8,8,0,0,0-2.46.39C5.42,10.78,5.23,11.31,5.06,11.88Z"/><path class="cls-3" d="M16,23.38h0l0,.05Z"/><path class="cls-1" d="M55.56,16.3a7.69,7.69,0,0,1-7.81-7.84v0A7.74,7.74,0,0,1,55.69.54a7.89,7.89,0,0,1,6,2.35L59.56,5.35a5.63,5.63,0,0,0-3.89-1.72,4.52,4.52,0,0,0-4.42,4.75v0a4.53,4.53,0,0,0,4.42,4.79,5.48,5.48,0,0,0,4-1.79l2.13,2.16A7.78,7.78,0,0,1,55.56,16.3Z"/><path class="cls-1" d="M71,7.62c-2.19,0-3.54,1.32-3.54,4.11V16H64.13V4.37h3.31V6.72a3.59,3.59,0,0,1,3.72-2.56V7.62Z"/><path class="cls-1" d="M79.51,16V14.77A4.44,4.44,0,0,1,76,16.25c-2.2,0-4-1.26-4-3.56v0c0-2.54,1.94-3.72,4.7-3.72a8.3,8.3,0,0,1,2.85.48V9.2c0-1.37-.84-2.13-2.5-2.13a8.63,8.63,0,0,0-3.22.63L73,5.18a10.19,10.19,0,0,1,4.52-.94c3.61,0,5.2,1.87,5.2,5V16Zm.07-4.7a5,5,0,0,0-2.11-.44c-1.42,0-2.29.57-2.29,1.61v0c0,.9.74,1.42,1.81,1.42,1.54,0,2.59-.85,2.59-2.05Z"/><path class="cls-1" d="M90.59,2.79c-.77,0-1.2.39-1.2,1.26V4.5h2.68V7.2H89.43V16h-3.3V7.2H84.76V4.48h1.37V3.74C86.13,1.18,87.41,0,89.74,0a7.21,7.21,0,0,1,2.35.33V3.07A4.08,4.08,0,0,0,90.59,2.79Z"/><path class="cls-1" d="M97.81,16.23c-2,0-3.4-.8-3.4-3.5V7.2H93V4.37h1.39v-3h3.31v3h2.74V7.2H97.72v5c0,.77.33,1.14,1.07,1.14a3.37,3.37,0,0,0,1.63-.42v2.66A4.91,4.91,0,0,1,97.81,16.23Z"/><path class="cls-1" d="M111,15.68a5.26,5.26,0,0,1-2.66.62A5.72,5.72,0,0,1,103,12.71a6,6,0,0,1-.44-2.27A6,6,0,0,1,103,8.17a5.78,5.78,0,0,1,1.21-1.88A5.58,5.58,0,0,1,106.06,5a5.66,5.66,0,0,1,2.3-.47,6.55,6.55,0,0,1,1.46.15,4.94,4.94,0,0,1,1.19.43,4.88,4.88,0,0,1,1,.64,7.94,7.94,0,0,1,.85.78l-1.11,1.18a7.83,7.83,0,0,0-1.46-1.2,3.62,3.62,0,0,0-2-.5,3.69,3.69,0,0,0-1.59.34,3.8,3.8,0,0,0-1.28.93,4.2,4.2,0,0,0-.85,1.39,4.55,4.55,0,0,0-.31,1.7,4.69,4.69,0,0,0,.32,1.72,4.47,4.47,0,0,0,.87,1.4,4.18,4.18,0,0,0,1.3.93,4.05,4.05,0,0,0,1.65.33,3.9,3.9,0,0,0,1.92-.47,6.44,6.44,0,0,0,1.51-1.2l1.07,1A7.65,7.65,0,0,1,111,15.68Z"/><path class="cls-1" d="M115.87,16V.15h1.67V16Z"/><path class="cls-1" d="M132,12.67a6.05,6.05,0,0,1-1.23,1.89,5.84,5.84,0,0,1-1.87,1.27,5.94,5.94,0,0,1-2.35.47,5.77,5.77,0,0,1-2.33-.47,5.84,5.84,0,0,1-1.85-1.26,5.72,5.72,0,0,1-1.22-1.86,6,6,0,0,1-.43-2.27,6,6,0,0,1,.43-2.27,5.81,5.81,0,0,1,1.22-1.88A5.64,5.64,0,0,1,124.25,5a5.92,5.92,0,0,1,2.36-.47A5.86,5.86,0,0,1,129,5,5.7,5.7,0,0,1,132,8.14a5.91,5.91,0,0,1,.44,2.26A5.78,5.78,0,0,1,132,12.67Zm-1.59-3.95a4.19,4.19,0,0,0-2.21-2.34A3.82,3.82,0,0,0,126.57,6a4,4,0,0,0-1.68.34,3.65,3.65,0,0,0-1.29.93,4.34,4.34,0,0,0-.84,1.39,4.75,4.75,0,0,0-.3,1.7,4.69,4.69,0,0,0,.31,1.72,4.26,4.26,0,0,0,.87,1.38,4.18,4.18,0,0,0,1.32.94,4,4,0,0,0,1.65.34,4.2,4.2,0,0,0,1.68-.33,3.93,3.93,0,0,0,1.3-.92,4.15,4.15,0,0,0,.85-1.38,4.81,4.81,0,0,0,.31-1.71A4.64,4.64,0,0,0,130.43,8.72Z"/><path class="cls-1" d="M143.47,4.79h1.66V16h-1.66v-2A5.08,5.08,0,0,1,142,15.63a4,4,0,0,1-2.37.65,4.64,4.64,0,0,1-1.81-.33,3.79,3.79,0,0,1-1.35-.93,3.9,3.9,0,0,1-.85-1.42,5.32,5.32,0,0,1-.3-1.83v-7H137v6.57a3.61,3.61,0,0,0,.81,2.48,2.88,2.88,0,0,0,2.3.91,3.47,3.47,0,0,0,1.34-.25,2.89,2.89,0,0,0,1.07-.72,3.44,3.44,0,0,0,.7-1.12,3.68,3.68,0,0,0,.26-1.43Z"/><path class="cls-1" d="M157.92,16V13.77a7.9,7.9,0,0,1-.77,1,5.65,5.65,0,0,1-1,.81,4.56,4.56,0,0,1-1.16.54,4.94,4.94,0,0,1-1.43.2,5,5,0,0,1-2-.4,5.27,5.27,0,0,1-1.72-1.14,5.74,5.74,0,0,1-1.22-1.84,6.41,6.41,0,0,1-.45-2.48,6.49,6.49,0,0,1,.45-2.48,5.85,5.85,0,0,1,1.22-1.84A5.47,5.47,0,0,1,151.63,5a5.28,5.28,0,0,1,3.42-.21,5.21,5.21,0,0,1,1.17.53,4.67,4.67,0,0,1,.95.76,7.1,7.1,0,0,1,.75.91V.15h1.67V16Zm-.27-7.41a4.13,4.13,0,0,0-.92-1.37,4.36,4.36,0,0,0-1.3-.87,3.79,3.79,0,0,0-1.51-.32,4.15,4.15,0,0,0-1.55.29,3.7,3.7,0,0,0-1.25.85,4,4,0,0,0-.85,1.36A5,5,0,0,0,150,10.4a4.89,4.89,0,0,0,.31,1.8,4.25,4.25,0,0,0,.86,1.37,3.55,3.55,0,0,0,1.26.88,3.94,3.94,0,0,0,1.53.3,3.78,3.78,0,0,0,1.51-.31,4.21,4.21,0,0,0,1.3-.88,4,4,0,0,0,.92-1.37A4.71,4.71,0,0,0,158,10.4,4.58,4.58,0,0,0,157.65,8.63Z"/><path class="cls-4" d="M104.17,23.25l.89-4.19.9,4.19Zm1.54-4.92h-1.26L102.59,26h1l.43-1.94h2.14l.41,1.94h1Z"/><path class="cls-4" d="M110.28,25.19h-.7a.47.47,0,0,1-.3-.08.34.34,0,0,1-.08-.25V18.33h-1.79v.83h.85v5.75a1.15,1.15,0,0,0,.28.84,1,1,0,0,0,.66.26h1.08Z"/><path class="cls-4" d="M113,25.19h-.7a.47.47,0,0,1-.3-.08.34.34,0,0,1-.08-.25V18.33h-1.79v.83H111v5.75a1.15,1.15,0,0,0,.28.84,1,1,0,0,0,.66.26H113Z"/><path class="cls-4" d="M116.91,23.36A1.42,1.42,0,0,0,116.2,22a1.47,1.47,0,0,0,.6-1.28V20q0-1.71-1.89-1.71h-1.27v.83H115a.86.86,0,0,1,.61.18.83.83,0,0,1,.2.61v.89a.76.76,0,0,1-.24.59.81.81,0,0,1-.57.22H114v.82h1.17a.82.82,0,0,1,.59.21.79.79,0,0,1,.21.58v1.13a.84.84,0,0,1-.19.61.9.9,0,0,1-.62.19h-1.5V26H115a2.07,2.07,0,0,0,1.43-.41,1.76,1.76,0,0,0,.44-1.32Z"/><path class="cls-4" d="M122,20a1.58,1.58,0,0,0-.51-1.31,2.39,2.39,0,0,0-1.49-.4h-2.13V26h2.26a2.09,2.09,0,0,0,1.43-.39,1.75,1.75,0,0,0,.44-1.34Zm-1.15,5a.92.92,0,0,1-.62.19h-1.4v-6h1.41a.79.79,0,0,1,.58.21A.75.75,0,0,1,121,20v4.44A.84.84,0,0,1,120.8,25Z"/><path class="cls-4" d="M126.84,20q0-1.71-1.89-1.71h-2.07V26h1V23H125q1.86,0,1.86-1.74Zm-1.15,2a.8.8,0,0,1-.6.19h-1.25v-3h1.25a.84.84,0,0,1,.6.18.83.83,0,0,1,.2.61V21.4A.83.83,0,0,1,125.69,22Z"/></g></g></svg>