<?xml version="1.0" encoding="UTF-8" standalone="no"?>
<svg width="128" height="94" viewBox="0 0 128 94" version="1.1" xmlns="http://www.w3.org/2000/svg" xmlns:xlink="http://www.w3.org/1999/xlink">
    <!-- Generator: sketchtool 42 (36781) - http://www.bohemiancoding.com/sketch -->
    <title>9C767441-113C-40B9-ADEE-8FF9C39AAD9D</title>
    <desc>Created with sketchtool.</desc>
    <defs></defs>
    <g id="Configurator" stroke="none" stroke-width="1" fill="none" fill-rule="evenodd">
        <g id="Assets" transform="translate(-46.000000, -213.000000)">
            <g id="fail-icon-#2" transform="translate(46.000000, 213.000000)">
                <rect id="Rectangle-6" fill="#E05757" x="0" y="0" width="128" height="94"></rect>
                <g id="noun_320_public_domain" transform="translate(42.000000, 16.000000)" fill="#FFFFFF">
                    <g id="Group">
                        <rect id="Rectangle-path" x="0" y="15.28605" width="8.05476786" height="7.64269"></rect>
                        <rect id="Rectangle-path" x="0" y="44.70173" width="8.05476786" height="7.64336"></rect>
                        <path d="M36.5381607,0 C32.5045,7.1288 29.8834464,12.37624 28.6756607,15.74232 C26.8514286,20.86045 25.9383214,26.77454 25.9383214,33.48258 C25.9383214,40.26097 26.9796071,46.45512 29.0608571,52.06503 C30.3459464,55.52424 32.8758214,60.50234 36.653125,67 L31.9898036,67 C28.2382679,61.67082 25.9125536,58.2699 25.0126607,56.79724 C24.1134286,55.32458 23.1368929,53.32664 22.0830536,50.80208 C20.6440179,47.34287 19.642375,43.64983 19.0768036,39.72363 C18.7940179,37.68951 18.6539464,35.74986 18.6539464,33.90267 C18.6539464,26.98425 19.8478571,20.82494 22.237,15.42608 C23.754,11.99032 26.9141964,6.84807 31.7195714,0 L36.5381607,0 Z" id="Shape"></path>
                    </g>
                </g>
            </g>
        </g>
    </g>
</svg>
