<?xml version="1.0" encoding="UTF-8" standalone="no"?>
<svg width="16px" height="9px" viewBox="0 0 16 9" version="1.1" xmlns="http://www.w3.org/2000/svg" xmlns:xlink="http://www.w3.org/1999/xlink">
    <!-- Generator: sketchtool 42 (36781) - http://www.bohemiancoding.com/sketch -->
    <title>6BFC3482-5FC1-4222-B2DE-6FA0054F636E</title>
    <desc>Created with sketchtool.</desc>
    <defs></defs>
    <g id="Configurator" fill-rule="evenodd">
        <g id="Assets" transform="translate(-550.000000, -52.000000)">
            <path d="M565.950417,53.247495 C565.950417,53.3777562 565.900317,53.4929855 565.800116,53.5931864 L558.796108,60.5971944 C558.695907,60.6973953 558.580678,60.747495 558.450417,60.747495 C558.320155,60.747495 558.204926,60.6973953 558.104725,60.5971944 L551.100717,53.5931864 C551.000516,53.4929855 550.950417,53.3777562 550.950417,53.247495 C550.950417,53.1172338 551.000516,53.0020045 551.100717,52.9018036 L551.85222,52.1503006 C551.952421,52.0500997 552.06765,52 552.197912,52 C552.328173,52 552.443402,52.0500997 552.543603,52.1503006 L558.450417,58.0571142 L564.35723,52.1503006 C564.457431,52.0500997 564.572661,52 564.702922,52 C564.833183,52 564.948412,52.0500997 565.048613,52.1503006 L565.800116,52.9018036 C565.900317,53.0020045 565.950417,53.1172338 565.950417,53.247495 Z" id=""></path>
        </g>
    </g>
</svg>
