<?xml version="1.0" encoding="utf-8"?>
<!-- Generator: Adobe Illustrator 21.1.0, SVG Export Plug-In . SVG Version: 6.00 Build 0)  -->
<svg version="1.1" id="Ebene_1" xmlns="http://www.w3.org/2000/svg" xmlns:xlink="http://www.w3.org/1999/xlink" x="0px" y="0px"
	 viewBox="0 0 25 20" style="enable-background:new 0 0 25 20;" xml:space="preserve">
<path id="Combined-Shape-Copy-2" class="st0" d="M6.6,4.5l0.7,8h14.4l0.9-6.2l1.1,0.1c0.4,0.1,0.7,0.2,0.9,0.5
	c0.2,0.3,0.3,0.6,0.2,1l-1,6.1c0,0.3-0.2,0.6-0.4,0.8c-0.2,0.2-0.5,0.3-0.8,0.3H7.3H5L3.9,3.5l-3-0.9C0.6,2.5,0.3,2.2,0.1,1.9
	C0,1.6,0,1.3,0.1,0.9c0.1-0.4,0.3-0.6,0.6-0.8C1,0,1.3,0,1.7,0.1l3.8,1.2C5.7,1.4,5.9,1.5,6,1.7c0.2,0.2,0.3,0.4,0.3,0.7L6.6,4.5
	L6.6,4.5z M7.6,15.9c0.6,0,1.1,0.2,1.5,0.6c0.4,0.4,0.6,0.9,0.6,1.5c0,0.6-0.2,1.1-0.6,1.5C8.6,19.8,8.2,20,7.6,20s-1.1-0.2-1.5-0.6
	c-0.4-0.4-0.6-0.9-0.6-1.5s0.2-1.1,0.6-1.5C6.5,16.1,7,15.9,7.6,15.9z M19.3,15.9c0.6,0,1.1,0.2,1.5,0.6c0.4,0.4,0.6,0.9,0.6,1.5
	c0,0.6-0.2,1.1-0.6,1.5S19.9,20,19.3,20c-0.6,0-1.1-0.2-1.5-0.6c-0.4-0.4-0.6-0.9-0.6-1.5s0.2-1.1,0.6-1.5
	C18.2,16.1,18.7,15.9,19.3,15.9z"/>
</svg>
