<?xml version="1.0" encoding="UTF-8" standalone="no"?>
<svg width="20px" height="20px" viewBox="0 0 20 20" version="1.1" xmlns="http://www.w3.org/2000/svg" xmlns:xlink="http://www.w3.org/1999/xlink">
    <!-- Generator: Sketch 47.1 (45422) - http://www.bohemiancoding.com/sketch -->
    <title>ic_shopping_cart_black_24px</title>
    <desc>Created with Sketch.</desc>
    <defs></defs>
    <g id="Configurator" fill-rule="evenodd">
        <g id="Assets" transform="translate(-447.000000, -251.000000)">
            <g id="Select-button" transform="translate(431.000000, 235.000000)">
                <g id="ic_shopping_cart_black_24px" transform="translate(15.000000, 8.000000)">
                    <g id="Group">
                        <path d="M7.00614035,24 C5.90517544,24 5.01439474,24.9 5.01439474,26 C5.01439474,27.1 5.90517544,28 7.00614035,28 C8.10710526,28 9.00789474,27.1 9.00789474,26 C9.00789474,24.9 8.10710526,24 7.00614035,24 Z M1.00087719,8 L1.00087719,10 L3.00263158,10 L6.60578947,17.59 L5.25460526,20.04 C5.09446491,20.32 5.00438596,20.65 5.00438596,21 C5.00438596,22.1 5.90517544,23 7.00614035,23 L19.0166667,23 L19.0166667,21 L7.42650877,21 C7.28638596,21 7.17628947,20.89 7.17628947,20.75 L7.20631579,20.63 L8.10710526,19 L15.5636404,19 C16.3142982,19 16.9748772,18.59 17.3151754,17.97 L20.8983158,11.48 C20.978386,11.34 21.0184211,11.17 21.0184211,11 C21.0184211,10.45 20.5680263,10 20.0175439,10 L5.21457018,10 L4.27374561,8 L1.00087719,8 Z M17.0149123,24 C15.9139474,24 15.0231667,24.9 15.0231667,26 C15.0231667,27.1 15.9139474,28 17.0149123,28 C18.1158772,28 19.0166667,27.1 19.0166667,26 C19.0166667,24.9 18.1158772,24 17.0149123,24 Z" id="Shape"></path>
                    </g>
                </g>
            </g>
        </g>
    </g>
</svg>
