<?xml version="1.0" encoding="UTF-8"?>
<svg width="30px" height="30px" viewBox="0 0 30 30" version="1.1" xmlns="http://www.w3.org/2000/svg" xmlns:xlink="http://www.w3.org/1999/xlink">
    <!-- Generator: Sketch 54.1 (76490) - https://sketchapp.com -->
    <title>ic-best-price</title>
    <desc>Created with Sketch.</desc>
    <g id="Symbols" stroke="none" stroke-width="1" fill-rule="evenodd">
        <g id="ic-best-price" fill-rule="nonzero">
            <g>
                <path d="M16.6666667,24.1852381 C10.3672964,24.1852381 5.23809524,21.5869116 5.23809524,18.9471429 L3.33333333,18.9471429 L3.33333333,22.97 C3.33333333,26.9859008 9.36853501,29.8995238 16.6666667,29.8995238 C23.9647983,29.8995238 30,26.9859008 30,22.97 L30,18.9471429 L28.0952381,18.9471429 C28.0952381,21.5869116 22.9660369,24.1852381 16.6666667,24.1852381 Z M28.0952381,22.97 C28.0952381,25.5560314 23.0437163,27.9947619 16.6666667,27.9947619 C10.289617,27.9947619 5.23809524,25.5560314 5.23809524,22.97 L5.23809524,22.6420211 C7.59667705,24.7324202 11.8914154,26.09 16.6666667,26.09 C21.441918,26.09 25.7366563,24.7324202 28.0952381,22.6420211 L28.0952381,22.97 Z" id="Stroke-68"></path>
                <path d="M28.0952381,26.1538095 L28.0952381,22.192381 C28.0952381,21.6663955 27.6688426,21.24 27.1428571,21.24 C26.6168717,21.24 26.1904762,21.6663955 26.1904762,22.192381 L26.1904762,26.1538095 C26.1904762,26.679795 26.6168717,27.1061905 27.1428571,27.1061905 C27.6688426,27.1061905 28.0952381,26.679795 28.0952381,26.1538095 Z" id="Stroke-72"></path>
                <path d="M7.14285714,23.3690476 L7.14285714,27.2809524 C7.14285714,27.8069379 7.56925262,28.2333333 8.0952381,28.2333333 C8.62122357,28.2333333 9.04761905,27.8069379 9.04761905,27.2809524 L9.04761905,23.3690476 C9.04761905,22.8430621 8.62122357,22.4166667 8.0952381,22.4166667 C7.56925262,22.4166667 7.14285714,22.8430621 7.14285714,23.3690476 Z" id="Stroke-74"></path>
                <path d="M24.2857143,28.0052381 L24.2857143,24.1328571 C24.2857143,23.6068717 23.8593188,23.1804762 23.3333333,23.1804762 C22.8073479,23.1804762 22.3809524,23.6068717 22.3809524,24.1328571 L22.3809524,28.0052381 C22.3809524,28.5312236 22.8073479,28.957619 23.3333333,28.957619 C23.8593188,28.957619 24.2857143,28.5312236 24.2857143,28.0052381 Z" id="Stroke-80"></path>
                <path d="M11.4285714,24.7428571 L11.4285714,28.5790476 C11.4285714,29.1050331 11.8549669,29.5314286 12.3809524,29.5314286 C12.9069379,29.5314286 13.3333333,29.1050331 13.3333333,28.5790476 L13.3333333,24.7428571 C13.3333333,24.2168717 12.9069379,23.7904762 12.3809524,23.7904762 C11.8549669,23.7904762 11.4285714,24.2168717 11.4285714,24.7428571 Z" id="Stroke-82"></path>
                <path d="M19.047619,28.9061905 L19.047619,25.0938095 C19.047619,24.567824 18.6212236,24.1414286 18.0952381,24.1414286 C17.5692526,24.1414286 17.1428571,24.567824 17.1428571,25.0938095 L17.1428571,28.9061905 C17.1428571,29.432176 17.5692526,29.8585714 18.0952381,29.8585714 C18.6212236,29.8585714 19.047619,29.432176 19.047619,28.9061905 Z" id="Stroke-88"></path>
                <path d="M29.0674638,6.66666667 C29.0674638,10.7102109 22.9492952,13.8095238 15.7341304,13.8095238 C8.51896563,13.8095238 2.4007971,10.7102109 2.4007971,6.66666667 C2.4007971,2.6841024 8.32019588,0 15.7341304,0 C23.148065,0 29.0674638,2.6841024 29.0674638,6.66666667 Z M27.1627019,6.66666667 C27.1627019,4.14757147 22.2165105,1.9047619 15.7341304,1.9047619 C9.25175042,1.9047619 4.30555901,4.14757147 4.30555901,6.66666667 C4.30555901,9.30643539 9.43476019,11.9047619 15.7341304,11.9047619 C22.0335007,11.9047619 27.1627019,9.30643539 27.1627019,6.66666667 Z" id="Stroke-90"></path>
                <path d="M15.7341304,11.9047619 C9.43476019,11.9047619 4.30555901,9.30643539 4.30555901,6.66666667 L2.4007971,6.66666667 L2.4007971,10.6895238 C2.4007971,14.7054246 8.43599878,17.6190476 15.7341304,17.6190476 C23.0322621,17.6190476 29.0674638,14.7054246 29.0674638,10.6895238 L29.0674638,6.66666667 L27.1627019,6.66666667 C27.1627019,9.30643539 22.0335007,11.9047619 15.7341304,11.9047619 Z M27.1627019,10.6895238 C27.1627019,13.2755552 22.1111801,15.7142857 15.7341304,15.7142857 C9.35708081,15.7142857 4.30555901,13.2755552 4.30555901,10.6895238 L4.30555901,10.3615449 C6.66414082,12.451944 10.9588791,13.8095238 15.7341304,13.8095238 C20.5093817,13.8095238 24.8041201,12.451944 27.1627019,10.3615449 L27.1627019,10.6895238 Z" id="Stroke-94"></path>
                <path d="M27.1627019,13.8733333 L27.1627019,9.91190476 C27.1627019,9.38591929 26.7363064,8.95952381 26.2103209,8.95952381 C25.6843354,8.95952381 25.25794,9.38591929 25.25794,9.91190476 L25.25794,13.8733333 C25.25794,14.3993188 25.6843354,14.8257143 26.2103209,14.8257143 C26.7363064,14.8257143 27.1627019,14.3993188 27.1627019,13.8733333 Z" id="Stroke-98"></path>
                <path d="M6.21032091,11.0885714 L6.21032091,15.0004762 C6.21032091,15.5264617 6.63671639,15.9528571 7.16270187,15.9528571 C7.68868734,15.9528571 8.11508282,15.5264617 8.11508282,15.0004762 L8.11508282,11.0885714 C8.11508282,10.562586 7.68868734,10.1361905 7.16270187,10.1361905 C6.63671639,10.1361905 6.21032091,10.562586 6.21032091,11.0885714 Z" id="Stroke-100"></path>
                <path d="M23.3531781,15.7247619 L23.3531781,11.852381 C23.3531781,11.3263955 22.9267826,10.9 22.4007971,10.9 C21.8748116,10.9 21.4484162,11.3263955 21.4484162,11.852381 L21.4484162,15.7247619 C21.4484162,16.2507474 21.8748116,16.6771429 22.4007971,16.6771429 C22.9267826,16.6771429 23.3531781,16.2507474 23.3531781,15.7247619 Z" id="Stroke-106"></path>
                <path d="M10.4960352,12.462381 L10.4960352,16.2985714 C10.4960352,16.8245569 10.9224307,17.2509524 11.4484162,17.2509524 C11.9744016,17.2509524 12.4007971,16.8245569 12.4007971,16.2985714 L12.4007971,12.462381 C12.4007971,11.9363955 11.9744016,11.51 11.4484162,11.51 C10.9224307,11.51 10.4960352,11.9363955 10.4960352,12.462381 Z" id="Stroke-108"></path>
                <path d="M18.1150828,16.6257143 L18.1150828,12.8133333 C18.1150828,12.2873479 17.6886873,11.8609524 17.1627019,11.8609524 C16.6367164,11.8609524 16.2103209,12.2873479 16.2103209,12.8133333 L16.2103209,16.6257143 C16.2103209,17.1516998 16.6367164,17.5780952 17.1627019,17.5780952 C17.6886873,17.5780952 18.1150828,17.1516998 18.1150828,16.6257143 Z" id="Stroke-114"></path>
                <path d="M24.7817495,18.6352381 L24.7817495,15.2380952 C24.7817495,14.7121098 24.355354,14.2857143 23.8293685,14.2857143 C23.3033831,14.2857143 22.8769876,14.7121098 22.8769876,15.2380952 L22.8769876,18.6352381 C22.8769876,19.1612236 23.3033831,19.587619 23.8293685,19.587619 C24.355354,19.587619 24.7817495,19.1612236 24.7817495,18.6352381 Z" id="Stroke-118"></path>
                <path d="M3.82936853,15.8504762 L3.82936853,19.762381 C3.82936853,20.2883664 4.25576401,20.7147619 4.78174948,20.7147619 C5.30773496,20.7147619 5.73413044,20.2883664 5.73413044,19.762381 L5.73413044,15.8504762 C5.73413044,15.3244907 5.30773496,14.8980952 4.78174948,14.8980952 C4.25576401,14.8980952 3.82936853,15.3244907 3.82936853,15.8504762 Z" id="Stroke-120"></path>
                <path d="M20.9722257,20.4866667 L20.9722257,16.6142857 C20.9722257,16.0883002 20.5458302,15.6619048 20.0198447,15.6619048 C19.4938592,15.6619048 19.0674638,16.0883002 19.0674638,16.6142857 L19.0674638,20.4866667 C19.0674638,21.0126521 19.4938592,21.4390476 20.0198447,21.4390476 C20.5458302,21.4390476 20.9722257,21.0126521 20.9722257,20.4866667 Z" id="Stroke-126"></path>
                <path d="M8.11508282,17.2242857 L8.11508282,21.0604762 C8.11508282,21.5864617 8.54147829,22.0128571 9.06746377,22.0128571 C9.59344925,22.0128571 10.0198447,21.5864617 10.0198447,21.0604762 L10.0198447,17.2242857 C10.0198447,16.6983002 9.59344925,16.2719048 9.06746377,16.2719048 C8.54147829,16.2719048 8.11508282,16.6983002 8.11508282,17.2242857 Z" id="Stroke-128"></path>
                <path d="M15.7341304,21.387619 L15.7341304,17.5752381 C15.7341304,17.0492526 15.307735,16.6228571 14.7817495,16.6228571 C14.255764,16.6228571 13.8293685,17.0492526 13.8293685,17.5752381 L13.8293685,21.387619 C13.8293685,21.9136045 14.255764,22.34 14.7817495,22.34 C15.307735,22.34 15.7341304,21.9136045 15.7341304,21.387619 Z" id="Stroke-134"></path>
                <path d="M25.2380952,13.6289436 L25.2380952,15.8271429 C25.2380952,18.4131743 20.1865734,20.8519048 13.8095238,20.8519048 C10.2916662,20.8519048 7.04131702,20.1106883 4.85595684,18.8731731 L2.90553746,17.768699 L3.46435964,19.9393479 C4.38362208,23.510065 10.0954463,26.09 16.6666667,26.09 C23.8818315,26.09 30,22.9906871 30,18.9471429 C30,17.1320952 28.7644801,15.5644994 26.6487272,14.4032087 L25.2380952,13.6289436 Z M28.0952381,18.9471429 C28.0952381,21.5869116 22.9660369,24.1852381 16.6666667,24.1852381 C12.9412639,24.1852381 9.58457093,23.2717209 7.48764495,21.9553961 C9.39455957,22.4748424 11.5575977,22.7566667 13.8095238,22.7566667 C20.4214862,22.7566667 25.9968357,20.3651648 26.9867747,16.9291291 C27.7229612,17.571403 28.0952381,18.2608198 28.0952381,18.9471429 Z" id="Stroke-138"></path>
                <path d="M15.7341304,15.7142857 C9.35708081,15.7142857 4.30555901,13.2755552 4.30555901,10.6895238 L4.30555901,6.27703766 L2.84733227,7.19115688 C1.05251835,8.31627264 0.0198447227,9.7724644 0.0198447227,11.4285714 C0.0198447227,15.4721157 6.13801325,18.5714286 13.3531781,18.5714286 C16.6752567,18.5714286 19.8294702,17.9110923 22.264473,16.743525 L21.6000649,14.9665005 C19.8311141,15.4531836 17.8233891,15.7142857 15.7341304,15.7142857 Z M1.92460663,11.4285714 C1.92460663,10.9789703 2.08330362,10.5286822 2.4007971,10.0902996 L2.4007971,10.6895238 C2.4007971,12.3560361 3.44010183,13.8327284 5.17767402,14.9901578 C3.16611328,14.0159805 1.92460663,12.7272915 1.92460663,11.4285714 Z" id="Stroke-140"></path>
                <path d="M21.4409308,15.0259988 C19.2737688,16.0651383 16.4004617,16.6666667 13.3531781,16.6666667 C7.05380781,16.6666667 1.92460663,14.0683402 1.92460663,11.4285714 L0.0198447227,11.4285714 L0.0198447227,15.4514286 C0.0198447227,19.4673293 6.0550464,22.3809524 13.3531781,22.3809524 C20.6513097,22.3809524 26.6865114,19.4673293 26.6865114,15.4514286 L26.6865114,12.4421681 L25.2093196,13.4176464 C24.264715,14.0414254 23.0318187,14.5729357 21.6002718,14.9664436 L21.5179313,14.9890776 L21.4409308,15.0259988 Z M24.7423715,15.8479407 C24.2599826,18.2812523 19.4030898,20.4761905 13.3531781,20.4761905 C6.97612843,20.4761905 1.92460663,18.03746 1.92460663,15.4514286 L1.92460663,15.1234497 C4.28318843,17.2138487 8.57792677,18.5714286 13.3531781,18.5714286 C16.640137,18.5714286 19.7627611,17.9249802 22.1870067,16.780384 C23.1109741,16.5220985 23.9686547,16.2090744 24.7423715,15.8479407 Z" id="Stroke-142"></path>
            </g>
        </g>
    </g>
</svg>
