<?xml version="1.0" encoding="UTF-8"?>
<svg width="24px" height="24px" viewBox="0 0 24 24" version="1.1" xmlns="http://www.w3.org/2000/svg" xmlns:xlink="http://www.w3.org/1999/xlink">
    <!-- Generator: Sketch 50.2 (55047) - http://www.bohemiancoding.com/sketch -->
    <title>Icons / cheapest</title>
    <desc>Created with Sketch.</desc>
    <defs></defs>
    <g id="Icons-/-cheapest" stroke="none" stroke-width="1" fill="none" fill-rule="evenodd">
        <path d="M16.4179648,12.3699355 C15.8083201,12.361174 15.3026003,12.8215425 15.2952026,13.3919936 C15.2872701,13.9966232 15.755823,14.4811075 16.3635067,14.4968088 C16.9592472,14.5119896 17.4743256,14.0397366 17.485645,13.4676374 C17.4977666,12.8626608 17.0270746,12.3786969 16.4179648,12.3699355 M14.0879458,20.7223246 C13.3710786,20.775761 12.677385,20.8477613 11.9819088,20.8736988 C11.2863435,20.8996363 10.5889065,20.8794241 9.87052407,20.8794241 C9.84155704,20.960533 9.80590531,21.0530925 9.7755122,21.1472134 C9.59680789,21.7007488 9.22175167,21.9892707 8.62904161,21.9936948 C7.57455249,22.0016756 6.51988511,22.0024563 5.46539599,21.9938683 C4.66234071,21.9872755 4.1673164,21.3673784 4.34468377,20.6051288 C4.49522321,19.957646 4.65039738,19.3111174 4.80922585,18.6655431 C4.84309499,18.5277882 4.82197134,18.4284624 4.71982913,18.3162112 C4.01633131,17.5433784 3.55820655,16.6476245 3.34598961,15.6353688 C3.3128335,15.476968 3.25427553,15.3809386 3.07762119,15.3175262 C1.84104084,14.8734661 0.977110233,13.6193586 1.00046212,12.3319401 C1.01026634,11.7882072 1.46233031,11.331135 2.02749941,11.2933999 C2.59587715,11.255578 3.08885149,11.644727 3.18136773,12.1924502 C3.22361504,12.4421961 3.28814467,12.6883853 3.34251356,12.9362226 C3.37174799,12.9345744 3.40098241,12.9329262 3.43021683,12.931278 C3.46364033,12.8353354 3.49501385,12.738612 3.5310221,12.6436236 C4.12560387,11.0741024 5.22305333,9.93025086 6.7049176,9.12176486 C8.24649852,8.28066182 9.91268224,7.98068922 11.6629149,8.10508503 C12.9728487,8.19816502 14.2823369,8.30156795 15.5887946,8.43099511 C16.1325727,8.48486526 16.6671704,8.62357439 17.2080963,8.71118929 C17.3135363,8.72827853 17.4466955,8.71847608 17.5368053,8.6689433 C18.4409332,8.17170705 19.3386438,7.66336714 20.2385827,7.15893086 C20.6380604,6.93494901 21.0380728,6.94639967 21.4109008,7.2016106 C21.7897896,7.4609854 21.9673352,7.83382583 21.8614496,8.27797265 C21.6135809,9.31807428 21.3370126,10.3515831 21.0823701,11.39021 C21.0581269,11.4891888 21.1054546,11.6049967 21.1209631,11.7128237 C21.1229239,11.7263563 21.1359368,11.7380672 21.1401259,11.7516866 C21.2815741,12.1981755 21.5293537,12.4238924 22.0718839,12.3970874 C22.580545,12.3720174 22.9818944,12.8923284 22.9892921,13.4712808 C23.0028398,14.5263897 23.0047115,15.5819324 22.9880443,16.6369546 C22.9780618,17.2667409 22.5022895,17.6972683 21.854141,17.7081985 C21.5646489,17.7130564 21.2745329,17.7016925 20.9854865,17.7138371 C20.9009919,17.7173937 20.8049105,17.759553 20.7379743,17.8125557 C20.2907234,18.1672659 19.8544353,18.5351617 19.4036191,18.8855346 C19.2967531,18.9685519 19.2529906,19.0248509 19.2908705,19.1646878 C19.4178798,19.6319962 19.5239437,20.1045961 19.6392771,20.5748539 C19.8342029,21.3698941 19.3361482,21.9915261 18.4920043,21.9950828 C17.4522215,21.9994202 16.4124388,21.9980322 15.3727451,21.995343 C14.7766481,21.9937816 14.3938377,21.7124597 14.2221746,21.1601388 C14.1770751,21.0151839 14.1331344,20.8698819 14.0879458,20.7223246" id="Fill-1" fill="#FFFFFF"></path>
        <path d="M12.4831476,6.99996811 C10.5444755,6.99183346 8.99264871,5.42402148 9.0000262,3.48116427 C9.0073091,1.56469738 10.586565,-0.0037767275 12.5049964,6.83084005e-06 C14.4449927,0.00379038918 16.0111015,1.58947969 15.9999407,3.53857977 C15.9889691,5.45873562 14.414726,7.00810276 12.4831476,6.99996811" id="Fill-3" fill="#FFFFFF"></path>
    </g>
</svg>