<?xml version="1.0" encoding="UTF-8"?>
<svg width="30px" height="30px" viewBox="0 0 30 30" version="1.1" xmlns="http://www.w3.org/2000/svg" xmlns:xlink="http://www.w3.org/1999/xlink">
    <!-- Generator: Sketch 54.1 (76490) - https://sketchapp.com -->
    <title>ic-fastest</title>
    <desc>Created with Sketch.</desc>
    <g id="Symbols" stroke="none" stroke-width="1" fill-rule="evenodd">
        <g id="ic-fastest">
            <g>
                <path d="M22.8000286,11.6959417 L22.8000286,11.6959417 L17.9847496,18.3197671 C17.5080046,18.9717103 16.5591431,19.0459111 15.9862262,18.4758445 C15.4133093,17.9062897 15.4878811,16.9616372 16.1430841,16.4872641 L22.8000286,11.6959417 L22.8000286,11.6959417 Z" id="Stroke-17-Copy"></path>
                <path d="M18.525,3.13432836 C19.3946563,3.13432836 20.1,2.43249381 20.1,1.56716418 C20.1,0.701834552 19.3946563,5.41788836e-14 18.525,5.41788836e-14 L14.475,5.41788836e-14 C13.6053437,5.41788836e-14 12.9,0.701834552 12.9,1.56716418 C12.9,2.43249381 13.6053437,3.13432836 14.475,3.13432836 L14.7,3.13432836 L14.7,4.90777315 C14.7,5.42897157 15.1455725,5.84005713 15.6678847,5.80074445 C15.976966,5.77748095 16.2447384,5.76568359 16.5,5.76568359 C16.7552616,5.76568359 17.023034,5.77748095 17.3321153,5.80074445 C17.8544275,5.84005713 18.3,5.42897157 18.3,4.90777315 L18.3,3.13432836 L18.525,3.13432836 Z" id="Path-Copy" fill-rule="nonzero"></path>
                <path d="M25.3362961,9.47024488 L24.0635039,8.20378497 L25.6542539,6.62094915 L26.9270461,7.88740906 L25.3362961,9.47024488 Z M24.0635039,8.20378497 L25.6542539,6.62094915 C26.502782,5.77664255 27.7755742,7.04310245 26.9270461,7.88740906 L25.3362961,9.47024488 C24.487768,10.3145515 23.2149758,9.04809158 24.0635039,8.20378497 Z" id="Path-Copy-2" fill-rule="nonzero"></path>
                <path d="M29.5821586,5.11121035 C29.9335244,5.46095169 29.933474,6.02787878 29.5820461,6.37755831 L28.3094461,7.64382697 C27.9580182,7.9935065 27.3882565,7.99355661 27.0367664,7.6439389 L25.7637164,6.37767024 C25.4121385,6.02796511 25.4120881,5.46086537 25.7636039,5.1110984 L27.0366539,3.84438199 C27.3881697,3.49461503 27.9581049,3.49466515 28.3095586,3.84449393 L29.5821586,5.11121035 Z" id="Path-Copy-3" fill-rule="nonzero"></path>
                <path d="M15.6,5.42731343 L17.4,5.42731343 L17.4,6.77059701 L15.6,6.77059701 L15.6,5.42731343 Z M17.4,5.42731343 L17.4,6.77059701 C17.4,7.96462687 15.6,7.96462687 15.6,6.77059701 L15.6,5.42731343 C15.6,4.23328358 17.4,4.23328358 17.4,5.42731343 Z" id="Path-Copy-4" fill-rule="nonzero"></path>
                <path d="M15.6,27.3676119 L17.4,27.3676119 L17.4,28.7108955 L15.6,28.7108955 L15.6,27.3676119 Z M17.4,27.3676119 L17.4,28.7108955 C17.4,29.9049254 15.6,29.9049254 15.6,28.7108955 L15.6,27.3676119 C15.6,26.1735821 17.4,26.1735821 17.4,27.3676119 Z" id="Path-Copy-5" fill-rule="nonzero"></path>
                <path d="M28.12665,16.1735821 L28.12665,17.9646269 L26.77665,17.9646269 L26.77665,16.1735821 L28.12665,16.1735821 Z M28.12665,17.9646269 L26.77665,17.9646269 C25.57665,17.9646269 25.57665,16.1735821 26.77665,16.1735821 L28.12665,16.1735821 C29.32665,16.1735821 29.32665,17.9646269 28.12665,17.9646269 Z" id="Path-Copy-6" fill-rule="nonzero"></path>
                <path d="M21.4971579,6.53922386 L23.0561421,7.43450749 L22.3811421,8.59823883 L20.8221579,7.7029552 L21.4971579,6.53922386 Z M23.0561421,7.43450749 L22.3811421,8.59823883 C21.7813021,9.63239089 20.2223178,8.73710727 20.8221579,7.7029552 L21.4971579,6.53922386 C22.0969979,5.50507179 23.6559822,6.40035542 23.0561421,7.43450749 Z" id="Path-Copy-7" fill-rule="nonzero"></path>
                <path d="M27.0093099,22.1144605 L26.1092901,23.6655395 L24.9401901,22.9938977 L25.8402099,21.4428188 L27.0093099,22.1144605 Z M26.1092901,23.6655395 L24.9401901,22.9938977 C23.9009672,22.3968696 24.800987,20.8457907 25.8402099,21.4428188 L27.0093099,22.1144605 C28.0485328,22.7114886 27.148513,24.2625675 26.1092901,23.6655395 Z" id="Path-Copy-8" fill-rule="nonzero"></path>
                <path d="M20.8221579,26.4352538 L22.3811421,25.5399701 L23.0561421,26.7037015 L21.4971579,27.5989851 L20.8221579,26.4352538 Z M22.3811421,25.5399701 L23.0561421,26.7037015 C23.6559822,27.7378535 22.0969979,28.6331372 21.4971579,27.5989851 L20.8221579,26.4352538 C20.2223178,25.4011017 21.7813021,24.5058181 22.3811421,25.5399701 Z" id="Path-Copy-9" fill-rule="nonzero"></path>
                <path d="M26.1092901,10.4726695 L27.0093099,12.0237484 L25.8402099,12.6953902 L24.9401901,11.1443113 L26.1092901,10.4726695 Z M27.0093099,12.0237484 L25.8402099,12.6953902 C24.800987,13.2924183 23.9009672,11.7413394 24.9401901,11.1443113 L26.1092901,10.4726695 C27.148513,9.87564144 28.0485328,11.4267203 27.0093099,12.0237484 Z" id="Path-Copy-10" fill-rule="nonzero"></path>
                <path d="M13.5985822,29.2854946 C14.5267997,29.4975731 15.47245,29.6064179 16.42665,29.6064179 C23.3854063,29.6064179 29.02665,23.9933893 29.02665,17.0691045 C29.02665,10.1451181 23.3852563,4.53179104 16.42665,4.53179104 C15.47245,4.53179104 14.5267997,4.64063581 13.5985822,4.85271434 C13.1141335,4.96340087 12.8115879,5.44389951 12.9228279,5.92593809 C13.0340679,6.40797666 13.516969,6.70901697 14.0014178,6.59833044 C14.7988355,6.41613697 15.6094418,6.32283582 16.42665,6.32283582 C22.3911437,6.32283582 27.22665,11.1342849 27.22665,17.0691045 C27.22665,23.0042119 22.3913045,27.8153731 16.42665,27.8153731 C15.6094418,27.8153731 14.7988355,27.722072 14.0014178,27.5398785 C13.516969,27.429192 13.0340679,27.7302323 12.9228279,28.2122709 C12.8115879,28.6943094 13.1141335,29.1748081 13.5985822,29.2854946 Z" id="Path-Copy-11" fill-rule="nonzero"></path>
                <path d="M7.2,9.90492537 L7.2,8.1138806 L9.45,8.1138806 L9.45,9.90492537 L7.2,9.90492537 Z M7.2,8.1138806 L9.45,8.1138806 C10.65,8.1138806 10.65,9.90492537 9.45,9.90492537 L7.2,9.90492537 C6,9.90492537 6,8.1138806 7.2,8.1138806 Z" id="Path-Copy-12" fill-rule="nonzero"></path>
                <path d="M4.95,13.0392537 L4.95,11.248209 L9.45,11.248209 L9.45,13.0392537 L4.95,13.0392537 Z M4.95,11.248209 L9.45,11.248209 C10.65,11.248209 10.65,13.0392537 9.45,13.0392537 L4.95,13.0392537 C3.75,13.0392537 3.75,11.248209 4.95,11.248209 Z" id="Path-Copy-13" fill-rule="nonzero"></path>
                <path d="M2.7,16.1735821 L2.7,14.3825373 L9.45,14.3825373 L9.45,16.1735821 L2.7,16.1735821 Z M2.7,14.3825373 L9.45,14.3825373 C10.65,14.3825373 10.65,16.1735821 9.45,16.1735821 L2.7,16.1735821 C1.5,16.1735821 1.5,14.3825373 2.7,14.3825373 Z" id="Path-Copy-14" fill-rule="nonzero"></path>
                <path d="M0.9,19.3079104 L0.9,17.5168657 L9.45,17.5168657 L9.45,19.3079104 L0.9,19.3079104 Z M0.9,17.5168657 L9.45,17.5168657 C10.65,17.5168657 10.65,19.3079104 9.45,19.3079104 L0.9,19.3079104 C-0.3,19.3079104 -0.3,17.5168657 0.9,17.5168657 Z" id="Path-Copy-15" fill-rule="nonzero"></path>
                <path d="M3.6,22.4422388 L3.6,20.651194 L9.45,20.651194 L9.45,22.4422388 L3.6,22.4422388 Z M3.6,20.651194 L9.45,20.651194 C10.65,20.651194 10.65,22.4422388 9.45,22.4422388 L3.6,22.4422388 C2.4,22.4422388 2.4,20.651194 3.6,20.651194 Z" id="Path-Copy-16" fill-rule="nonzero"></path>
                <path d="M6.3,25.5765672 L6.3,23.7855224 L9.45,23.7855224 L9.45,25.5765672 L6.3,25.5765672 Z M6.3,23.7855224 L9.45,23.7855224 C10.65,23.7855224 10.65,25.5765672 9.45,25.5765672 L6.3,25.5765672 C5.1,25.5765672 5.1,23.7855224 6.3,23.7855224 Z" id="Path-Copy-17" fill-rule="nonzero"></path>
            </g>
        </g>
    </g>
</svg>
