<?xml version="1.0" encoding="UTF-8"?>
<svg width="24px" height="24px" viewBox="0 0 24 24" version="1.1" xmlns="http://www.w3.org/2000/svg" xmlns:xlink="http://www.w3.org/1999/xlink">
    <!-- Generator: Sketch 50.2 (55047) - http://www.bohemiancoding.com/sketch -->
    <title>Icons / fastest</title>
    <desc>Created with Sketch.</desc>
    <defs></defs>
    <g id="Icons-/-fastest" stroke="none" stroke-width="1" fill="none" fill-rule="evenodd">
        <path d="M12.2907595,18.7083333 L7.5,18.7083333 C6.67157288,18.7083333 6,18.0367605 6,17.2083333 C6,16.3799062 6.67157288,15.7083333 7.5,15.7083333 L9.71892323,15.7083333 C9.4289421,15.0965161 9.21932294,14.4391943 9.10369805,13.75 L4.5,13.75 C3.67157288,13.75 3,13.0784271 3,12.25 C3,11.4215729 3.67157288,10.75 4.5,10.75 L9.20526017,10.75 C9.35258774,10.1336198 9.57601097,9.54679201 9.86504659,9 L1.5,9 C0.671572875,9 0,8.32842712 0,7.5 C0,6.67157288 0.671572875,6 1.5,6 L12.5,6 C12.577006,6 12.6526567,6.00580275 12.7265387,6.01699484 C13.8349744,5.37043124 15.1242278,5 16.5,5 C20.6421356,5 24,8.35786438 24,12.5 C24,16.6421356 20.6421356,20 16.5,20 C14.939807,20 13.490883,19.5236006 12.2907595,18.7083333 Z M19.0552762,13.490515 L17.2582126,12.3965474 L17.2582126,8.19116812 C17.2582126,7.67137532 16.8646233,7.25 16.3791063,7.25 C15.8935893,7.25 15.5,7.67137532 15.5,8.19116812 L15.5,12.9440671 C15.5,13.2825273 15.6697508,13.5949231 15.9445716,13.7622211 L18.1862069,15.1268229 C18.608265,15.383752 19.1449585,15.2257342 19.3849454,14.7738803 C19.6249322,14.3220263 19.4773343,13.7474441 19.0552762,13.490515 Z" id="Combined-Shape" fill="currentColor"></path>
    </g>
</svg>
