<?xml version="1.0" encoding="UTF-8"?>
<svg width="20px" height="20px" viewBox="0 0 20 20" version="1.1" xmlns="http://www.w3.org/2000/svg" xmlns:xlink="http://www.w3.org/1999/xlink">
    <!-- Generator: Sketch 56.3 (81716) - https://sketch.com -->
    <title>ic-info</title>
    <desc>Created with Sketch.</desc>
    <g id="Print-engine" stroke="none" stroke-width="1" fill-rule="evenodd">
        <g id="01_cc-configure-copy-7" transform="translate(-632.000000, -915.000000)" fill-rule="nonzero">
            <path d="M642,935 C636.477153,935 632,930.522847 632,925 C632,919.477153 636.477153,915 642,915 C647.522847,915 652,919.477153 652,925 C652,930.522847 647.522847,935 642,935 Z M642,933.5 C646.69442,933.5 650.5,929.69442 650.5,925 C650.5,920.30558 646.69442,916.5 642,916.5 C637.30558,916.5 633.5,920.30558 633.5,925 C633.5,929.69442 637.30558,933.5 642,933.5 Z M643.453,924.436 L641.997,927.866 C641.941,927.992 641.955,928.076 642.053,928.076 C642.249,928.076 643.019,927.53 643.369,927.194 C643.537,927.194 643.677,927.348 643.635,927.53 C643.089,928.258 641.843,929.196 640.695,929.196 C640.331,929.196 640.051,928.804 640.051,928.636 C640.051,928.482 640.107,928.314 640.219,928.034 L641.675,924.548 C641.717,924.436 641.717,924.352 641.647,924.352 C641.409,924.352 640.625,924.94 640.401,925.15 C640.233,925.122 640.121,924.94 640.177,924.814 C640.933,923.89 642.249,923.204 642.991,923.204 C643.299,923.204 643.635,923.512 643.635,923.82 C643.635,923.96 643.537,924.226 643.453,924.436 Z M642.487,921.3 C642.487,920.684 642.949,920.138 643.593,920.138 C644.069,920.138 644.377,920.432 644.377,920.964 C644.377,921.58 643.957,922.098 643.313,922.098 C642.795,922.098 642.487,921.748 642.487,921.3 Z" id="ic-info"></path>
        </g>
    </g>
</svg>
