<?xml version="1.0" encoding="utf-8"?>
<!-- Generator: Adobe Illustrator 21.1.0, SVG Export Plug-In . SVG Version: 6.00 Build 0)  -->
<svg version="1.1" id="Ebene_1" xmlns="http://www.w3.org/2000/svg" xmlns:xlink="http://www.w3.org/1999/xlink" x="0px" y="0px"
	 viewBox="0 0 32 32" style="enable-background:new 0 0 32 32;" xml:space="preserve">
<path id="Shape" d="M28.8,30.1c0,0-4.3-1.7-7.8-3H6.4c-1.7,0-3.1-1.4-3.1-3.3V5c0-1.8,1.4-3.3,3.1-3.3h19.3c1.7,0,3.1,1.4,3.1,3.3
	v16.3l0,0V30.1z M24.9,19.4c-0.3-0.4-0.9-0.4-1.1-0.1c0,0-2.7,2.4-7.8,2.4c-5,0-7.8-2.3-7.8-2.4C7.9,19,7.4,19,7.1,19.4
	c-0.1,0.1-0.3,0.4-0.1,0.6c0.1,0.1,0.1,0.4,0.3,0.6c0.1,0.1,3.3,2.8,8.9,2.8s8.8-2.7,8.9-2.8s0.3-0.4,0.3-0.6
	C25.2,19.9,25.1,19.6,24.9,19.4z"/>
</svg>
