<?xml version="1.0" encoding="UTF-8" standalone="no"?>
<svg width="32px" height="32px" viewBox="0 0 32 32" version="1.1" xmlns="http://www.w3.org/2000/svg" xmlns:xlink="http://www.w3.org/1999/xlink">
    <!-- Generator: sketchtool 42 (36781) - http://www.bohemiancoding.com/sketch -->
    <title>CBC7BC19-FDE8-4C36-9AF2-8E1FF0B1E208</title>
    <desc>Created with sketchtool.</desc>
    <defs></defs>
    <g id="Configurator" fill-rule="evenodd">
        <g id="Assets" transform="translate(-49.000000, -34.000000)">
            <g id="ic_my_location_black_24px" transform="translate(48.000000, 33.000000)">
                <g id="Group">
                    <path d="M17,11.3333333 C13.8691667,11.3333333 11.3333333,13.8691667 11.3333333,17 C11.3333333,20.1308333 13.8691667,22.6666667 17,22.6666667 C20.1308333,22.6666667 22.6666667,20.1308333 22.6666667,17 C22.6666667,13.8691667 20.1308333,11.3333333 17,11.3333333 Z M29.665,15.5833333 C29.0133333,9.67583333 24.3241667,4.98666667 18.4166667,4.335 L18.4166667,1.41666667 L15.5833333,1.41666667 L15.5833333,4.335 C9.67583333,4.98666667 4.98666667,9.67583333 4.335,15.5833333 L1.41666667,15.5833333 L1.41666667,18.4166667 L4.335,18.4166667 C4.98666667,24.3241667 9.67583333,29.0133333 15.5833333,29.665 L15.5833333,32.5833333 L18.4166667,32.5833333 L18.4166667,29.665 C24.3241667,29.0133333 29.0133333,24.3241667 29.665,18.4166667 L32.5833333,18.4166667 L32.5833333,15.5833333 L29.665,15.5833333 L29.665,15.5833333 Z M17,26.9166667 C11.5175,26.9166667 7.08333333,22.4825 7.08333333,17 C7.08333333,11.5175 11.5175,7.08333333 17,7.08333333 C22.4825,7.08333333 26.9166667,11.5175 26.9166667,17 C26.9166667,22.4825 22.4825,26.9166667 17,26.9166667 Z" id="Shape"></path>
                </g>
            </g>
        </g>
    </g>
</svg>
