<?xml version="1.0" encoding="UTF-8"?>
<svg width="55px" height="55px" viewBox="0 0 55 55" version="1.1" xmlns="http://www.w3.org/2000/svg" xmlns:xlink="http://www.w3.org/1999/xlink">
    <g id="ic-shipped" stroke="none" stroke-width="1" fill="none" fill-rule="evenodd">
        <path d="M50.2898892,25.2657388 C52.3876375,25.586274 54.0001035,27.408805 54,29.6023671 L54,38.4870627 C54,38.9471372 53.6283782,39.3200386 53.1701136,39.3200386 L50.4576884,39.3200386 C50.4578954,39.338533 50.4591376,39.3568197 50.4591376,39.3755219 C50.4591376,42.2843399 48.1013576,44.6507937 45.203432,44.6507937 C42.3055065,44.6507937 39.9477265,42.2843399 39.9477265,39.3755219 C39.9477265,39.3569236 39.9489687,39.338533 39.9491757,39.3200386 L21.2469712,39.3200386 C21.2471782,39.338533 21.2484204,39.3568197 21.2484204,39.3755219 C21.2484204,42.2843399 18.8906404,44.6507937 15.9927148,44.6507937 C13.0947892,44.6507937 10.7370093,42.2843399 10.7370093,39.3755219 C10.7370093,39.3569236 10.7382514,39.338533 10.7384585,39.3200386 L6.25580909,39.3200386 C5.3100885,39.3200386 4.54075887,38.5478449 4.54075887,37.5986035 L4.54075887,35.7660981 L1.82988639,35.7660981 C1.3715183,35.7660981 1,35.3931966 1,34.9331221 C1,34.4730476 1.37162182,34.1001462 1.82988639,34.1001462 L9.79646445,34.1001462 C10.2548325,34.1001462 10.6263508,34.4730476 10.6263508,34.9331221 C10.6263508,35.3931966 10.254729,35.7660981 9.79646445,35.7660981 L6.20042813,35.7660981 L6.20042813,37.5986035 C6.20042813,37.6292544 6.22516841,37.6540868 6.25570558,37.6540868 L11.0258184,37.6540868 C11.7385249,35.5882192 13.695181,34.1001462 15.9927148,34.1001462 C18.2902486,34.1001462 20.2468013,35.5882192 20.9596112,37.6540868 L38.1771918,37.6540868 L38.1771918,31.3793894 C38.1771918,30.9193148 38.5488136,30.5464134 39.0070781,30.5464134 C39.4654462,30.5464134 39.8369645,30.9194187 39.8369645,31.3793894 L39.8369645,37.6542946 L40.2365356,37.6542946 C40.9492421,35.588427 42.9058983,34.100354 45.203432,34.100354 C47.5009658,34.100354 49.4575185,35.588427 50.1703285,37.6542946 L52.3402272,37.6542946 L52.3402272,33.9893875 L51.3996824,33.9893875 C49.9658847,33.9893875 48.7994684,32.8186288 48.7994684,31.3794933 L48.7994684,29.6025749 C48.7994684,29.1425004 49.1710902,28.769599 49.6293547,28.769599 L52.2097973,28.769599 C51.8584646,27.6760388 50.8356247,26.8824415 49.631011,26.8816103 C49.6302864,26.8816103 49.6295618,26.8817142 49.6287336,26.8817142 C49.628009,26.8817142 49.6273879,26.8815064 49.6265598,26.8815064 L39.8371716,26.8815064 L39.8371716,27.8257605 C39.8371716,28.285835 39.4655497,28.6587364 39.0072852,28.6587364 C38.5489171,28.6587364 38.1773988,28.2857311 38.1773988,27.8257605 L38.1773988,12.7214351 C38.1773988,12.6907842 38.1526585,12.6659519 38.1221213,12.6659519 L6.25570558,12.6659519 C6.22516841,12.6659519 6.20042813,12.6907842 6.20042813,12.7214351 L6.20042813,27.8255527 C6.20042813,28.2856272 5.82880631,28.6585286 5.37054174,28.6585286 C4.91217366,28.6585286 4.54065535,28.2855233 4.54065535,27.8255527 L4.54065535,12.7214351 C4.54065535,11.7721937 5.30998498,11 6.25570558,11 L38.1222248,11 C39.0679454,11 39.8372751,11.7721937 39.8372751,12.7214351 L39.8372751,14.5540445 L46.0888029,14.5540445 C48.0105742,14.5540445 49.5741808,16.1233682 49.5741808,18.0523979 L49.5741808,18.9408571 C49.5741808,19.3411884 49.2926178,19.6753347 48.9173729,19.7553386 L50.2898892,25.2657388 Z M39.8372751,16.2198924 L39.8372751,18.1078812 L47.9145116,18.1078812 L47.9145116,18.0523979 C47.9145116,17.0419587 47.0954943,16.2198924 46.0888029,16.2198924 L39.8372751,16.2198924 Z M39.8372751,25.2156584 L48.5666613,25.2156584 L47.211225,19.7737291 L39.8372751,19.7737291 L39.8372751,25.2156584 Z M15.9927148,42.9851535 C17.9755605,42.9851535 19.5887511,41.3660611 19.5887511,39.3757297 C19.5887511,37.3853983 17.9755605,35.7663059 15.9927148,35.7663059 C14.0098692,35.7663059 12.3966785,37.3853983 12.3966785,39.3757297 C12.3966785,41.3660611 14.0098692,42.9851535 15.9927148,42.9851535 Z M45.2036391,42.9851535 C47.1864847,42.9851535 48.7996754,41.3660611 48.7996754,39.3757297 C48.7996754,37.3853983 47.1864847,35.7663059 45.2036391,35.7663059 C43.2207934,35.7663059 41.6076027,37.3853983 41.6076027,39.3757297 C41.6076027,41.3660611 43.2207934,42.9851535 45.2036391,42.9851535 Z M52.3404343,32.3234357 L52.3403307,32.3234357 L52.3403307,30.435343 L50.4593446,30.435343 L50.4593446,31.3793894 C50.4593446,31.8999344 50.8812752,32.3234357 51.3998895,32.3234357 L52.3404343,32.3234357 Z M16.1428571,37.9206349 C17.0706506,37.9206349 17.8253968,38.6753811 17.8253968,39.6031746 C17.8253968,40.5309681 17.0706506,41.2857143 16.1428571,41.2857143 C15.2150637,41.2857143 14.4603175,40.5309681 14.4603175,39.6031746 C14.4603175,38.6753811 15.2150637,37.9206349 16.1428571,37.9206349 Z M45.5873016,37.9206349 C46.5150951,37.9206349 47.2698413,38.6753811 47.2698413,39.6031746 C47.2698413,40.5309681 46.5150951,41.2857143 45.5873016,41.2857143 C44.6595081,41.2857143 43.9047619,40.5309681 43.9047619,39.6031746 C43.9047619,38.6753811 44.6595081,37.9206349 45.5873016,37.9206349 Z M35.4887232,34.5555556 C35.9552236,34.5555556 36.3333333,34.9321699 36.3333333,35.3968254 C36.3333333,35.8614809 35.9551182,36.2380952 35.4887232,36.2380952 L22.8763562,36.2380952 C22.4098558,36.2380952 22.031746,35.8614809 22.031746,35.3968254 C22.031746,34.9321699 22.4099611,34.5555556 22.8763562,34.5555556 L35.4887232,34.5555556 Z M14.4489231,30.3492063 C14.9197656,30.3492063 15.3015873,30.7258207 15.3015873,31.1904762 C15.3015873,31.6551317 14.9197656,32.031746 14.4489231,32.031746 L3.53520391,32.031746 C3.06425502,32.031746 2.68253968,31.6551317 2.68253968,31.1904762 C2.68253968,30.7258207 3.06436138,30.3492063 3.53520391,30.3492063 L14.4489231,30.3492063 Z M30.1971404,18.8262565 C30.5268967,19.1661537 30.5268967,19.717089 30.197035,20.0570948 L22.0890327,28.4117709 C21.9242599,28.5817738 21.7079693,28.6666667 21.4918893,28.6666667 C21.2758094,28.6666667 21.0596241,28.5817738 20.8947459,28.4117709 L16.3902534,23.7702359 C16.0603917,23.4303387 16.0603917,22.8794034 16.3902534,22.5395062 C16.7200097,22.1996089 17.2547839,22.1996089 17.5846456,22.5395062 L21.4918893,26.565622 L29.0027482,18.8263651 C29.3325045,18.4864678 29.867384,18.4864678 30.1971404,18.8262565 Z" fill="currentColor" fill-rule="nonzero"></path>
    </g>
</svg>
