<?xml version="1.0" encoding="UTF-8"?>
<svg width="55px" height="55px" viewBox="0 0 55 55" version="1.1" xmlns="http://www.w3.org/2000/svg" xmlns:xlink="http://www.w3.org/1999/xlink">
    <g id="ic-placed" stroke="none" stroke-width="1" fill="none" fill-rule="evenodd">
        <path d="M50.3389831,17.4576271 L44.5254237,17.4576271 C44.0667466,17.4576271 43.6949153,17.0857958 43.6949153,16.6271186 C43.6949153,16.1684415 44.0667466,15.7966102 44.5254237,15.7966102 L52,15.7966102 L52,37.3898305 L10.4745763,37.3898305 L10.4745763,15.7966102 L17.9491525,15.7966102 C18.4078297,15.7966102 18.779661,16.1684415 18.779661,16.6271186 C18.779661,17.0857958 18.4078297,17.4576271 17.9491525,17.4576271 L12.1355932,17.4576271 L12.1355932,35.7288136 L50.3389831,35.7288136 L50.3389831,17.4576271 Z M7.15254237,9.98305085 C6.69386521,9.98305085 6.3220339,9.61121954 6.3220339,9.15254237 C6.3220339,8.69386521 6.69386521,8.3220339 7.15254237,8.3220339 L11.3050847,8.3220339 C11.7637619,8.3220339 12.1355932,8.69386521 12.1355932,9.15254237 C12.1355932,9.61121954 11.7637619,9.98305085 11.3050847,9.98305085 L7.15254237,9.98305085 Z M10.4745763,9.15254237 C10.4745763,8.69386521 10.8464076,8.3220339 11.3050847,8.3220339 C11.7637619,8.3220339 12.1355932,8.69386521 12.1355932,9.15254237 L12.1355932,16.6271186 C12.1355932,17.0857958 11.7637619,17.4576271 11.3050847,17.4576271 C10.8464076,17.4576271 10.4745763,17.0857958 10.4745763,16.6271186 L10.4745763,9.15254237 Z M10.4745763,36.559322 C10.4745763,36.1006449 10.8464076,35.7288136 11.3050847,35.7288136 C11.7637619,35.7288136 12.1355932,36.1006449 12.1355932,36.559322 L12.1355932,42.3728814 C12.1355932,42.8315585 11.7637619,43.2033898 11.3050847,43.2033898 C10.8464076,43.2033898 10.4745763,42.8315585 10.4745763,42.3728814 L10.4745763,36.559322 Z M22.1016949,46.5254237 C22.1016949,45.1495077 20.9860855,44.0338983 19.6101695,44.0338983 C18.2342534,44.0338983 17.1186441,45.1495077 17.1186441,46.5254237 C17.1186441,47.9013398 18.2342534,49.0169492 19.6101695,49.0169492 C20.9860855,49.0169492 22.1016949,47.9013398 22.1016949,46.5254237 Z M23.7627119,46.5254237 C23.7627119,48.8186941 21.9034399,50.6779661 19.6101695,50.6779661 C17.3168991,50.6779661 15.4576271,48.8186941 15.4576271,46.5254237 C15.4576271,44.2321533 17.3168991,42.3728814 19.6101695,42.3728814 C21.9034399,42.3728814 23.7627119,44.2321533 23.7627119,46.5254237 Z M42.0338983,46.5254237 C42.0338983,45.1495077 40.9182889,44.0338983 39.5423729,44.0338983 C38.1664568,44.0338983 37.0508475,45.1495077 37.0508475,46.5254237 C37.0508475,47.9013398 38.1664568,49.0169492 39.5423729,49.0169492 C40.9182889,49.0169492 42.0338983,47.9013398 42.0338983,46.5254237 Z M43.6949153,46.5254237 C43.6949153,48.8186941 41.8356433,50.6779661 39.5423729,50.6779661 C37.2491025,50.6779661 35.3898305,48.8186941 35.3898305,46.5254237 C35.3898305,44.2321533 37.2491025,42.3728814 39.5423729,42.3728814 C41.8356433,42.3728814 43.6949153,44.2321533 43.6949153,46.5254237 Z M11.3050847,43.2033898 C10.8464076,43.2033898 10.4745763,42.8315585 10.4745763,42.3728814 C10.4745763,41.9142042 10.8464076,41.5423729 11.3050847,41.5423729 L47.0169492,41.5423729 C47.4756263,41.5423729 47.8474576,41.9142042 47.8474576,42.3728814 C47.8474576,42.8315585 47.4756263,43.2033898 47.0169492,43.2033898 L11.3050847,43.2033898 Z M50.3389831,16.6271186 C50.3389831,16.1684415 50.7108144,15.7966102 51.1694915,15.7966102 C51.6281687,15.7966102 52,16.1684415 52,16.6271186 L52,36.559322 C52,37.0179992 51.6281687,37.3898305 51.1694915,37.3898305 C50.7108144,37.3898305 50.3389831,37.0179992 50.3389831,36.559322 L50.3389831,16.6271186 Z M7.98305085,9.15254237 C7.98305085,8.235067 7.23950928,7.49152542 6.3220339,7.49152542 C5.40455852,7.49152542 4.66101695,8.235067 4.66101695,9.15254237 C4.66101695,10.0700178 5.40455852,10.8135593 6.3220339,10.8135593 C7.23950928,10.8135593 7.98305085,10.0700178 7.98305085,9.15254237 Z M9.6440678,9.15254237 C9.6440678,10.9873721 8.15686361,12.4745763 6.3220339,12.4745763 C4.48720419,12.4745763 3,10.9873721 3,9.15254237 C3,7.31771267 4.48720419,5.83050847 6.3220339,5.83050847 C8.15686361,5.83050847 9.6440678,7.31771267 9.6440678,9.15254237 Z M21.2711864,16.6271186 C21.2711864,22.1314923 25.7329145,26.5932203 31.2372881,26.5932203 C36.7416618,26.5932203 41.2033898,22.1314923 41.2033898,16.6271186 C41.2033898,11.122745 36.7416618,6.66101695 31.2372881,6.66101695 C25.7329145,6.66101695 21.2711864,11.122745 21.2711864,16.6271186 Z M19.6101695,16.6271186 C19.6101695,10.2053906 24.8155601,5 31.2372881,5 C37.6590161,5 42.8644068,10.2053906 42.8644068,16.6271186 C42.8644068,23.0488467 37.6590161,28.2542373 31.2372881,28.2542373 C24.8155601,28.2542373 19.6101695,23.0488467 19.6101695,16.6271186 Z M24.8920502,17.2651329 C24.5396847,16.971495 24.4920766,16.4478056 24.7857145,16.0954401 C25.0793525,15.7430745 25.6030418,15.6954664 25.9554074,15.9891044 L30.9384582,20.1416467 C31.2908238,20.4352847 31.3384319,20.958974 31.0447939,21.3113396 C30.751156,21.6637051 30.2274667,21.7113133 29.8751011,21.4176753 L24.8920502,17.2651329 Z M31.0275094,21.3314208 C30.7227809,21.6742404 30.1978395,21.7051193 29.8550199,21.4003908 C29.5122003,21.0956623 29.4813214,20.5707208 29.7860499,20.2279012 L36.4301177,12.7533249 C36.7348462,12.4105054 37.2597877,12.3796265 37.6026073,12.684355 C37.9454268,12.9890835 37.9763058,13.514025 37.6715772,13.8568445 L31.0275094,21.3314208 Z" fill="currentColor" fill-rule="nonzero"></path>
    </g>
</svg>
