<?xml version="1.0" encoding="UTF-8"?>
<svg width="55px" height="55px" viewBox="0 0 55 55" version="1.1" xmlns="http://www.w3.org/2000/svg" xmlns:xlink="http://www.w3.org/1999/xlink">
    <g id="ic-received" stroke="none" stroke-width="1" fill="none" fill-rule="evenodd">
        <path d="M4.39072175,25.9512783 C4.05578877,26.2622875 3.53214917,26.2428934 3.22113997,25.9079604 C2.91013078,25.5730275 2.92952484,25.0493879 3.26445782,24.7383787 L26.4368725,3.22113643 C26.7544018,2.92628786 27.2456072,2.92628786 27.5631365,3.22113643 L50.7355512,24.7383787 C51.0704842,25.0493879 51.0898782,25.5730275 50.778869,25.9079604 C50.4678598,26.2428934 49.9442202,26.2622875 49.6092872,25.9512783 L27.0000045,4.9569443 L4.39072175,25.9512783 Z M26.4368746,3.22113455 C26.7544032,2.92628848 27.2456058,2.92628848 27.5631344,3.22113455 L46.597618,20.8958939 C46.766254,21.0524834 46.8620743,21.2722187 46.8620743,21.5023456 L46.8620743,50.1724157 C46.8620743,50.6294789 46.4915513,51.0000019 46.034488,51.0000019 L7.96552098,51.0000019 C7.50845772,51.0000019 7.13793474,50.6294789 7.13793474,50.1724157 L7.13793474,21.5023456 C7.13793474,21.2722187 7.23375504,21.0524834 7.40239104,20.8958939 L26.4368746,3.22113455 Z M8.79310722,21.8632323 L8.79310722,49.3448294 L45.2069018,49.3448294 L45.2069018,21.8632323 L27.0000045,4.95694081 L8.79310722,21.8632323 Z M31.9655219,31.9133805 C31.9655219,31.4849264 31.6185276,31.1379322 31.1900736,31.1379322 L22.8099354,31.1379322 C22.3814814,31.1379322 22.0344871,31.4849264 22.0344871,31.9133805 L22.0344871,49.3448294 L31.9655219,49.3448294 L31.9655219,31.9133805 Z M32.7931082,51.0000019 L21.2069008,51.0000019 C20.7498376,51.0000019 20.3793146,50.6294789 20.3793146,50.1724157 L20.3793146,31.9133805 C20.3793146,30.5707999 21.4673548,29.4827597 22.8099354,29.4827597 L31.1900736,29.4827597 C32.5326542,29.4827597 33.6206944,30.5707999 33.6206944,31.9133805 L33.6206944,50.1724157 C33.6206944,50.6294789 33.2501714,51.0000019 32.7931082,51.0000019 Z M43.5517293,18.4286903 C43.5517293,19.1513207 42.6905183,19.5268538 42.1609936,19.0351239 L35.5403037,12.8869857 C35.3716795,12.7303971 35.2758669,12.5106697 35.2758669,12.2805521 L35.2758669,7.96551744 C35.2758669,7.50845418 35.6463899,7.1379312 36.1034531,7.1379312 L42.7241431,7.1379312 C43.1812063,7.1379312 43.5517293,7.50845418 43.5517293,7.96551744 L43.5517293,18.4286903 Z M41.8965568,8.79310368 L36.9310394,8.79310368 L36.9310394,11.9196811 L41.8965568,16.5307848 L41.8965568,8.79310368 Z" fill="currentColor" fill-rule="nonzero"></path>
    </g>
</svg>
