<?xml version="1.0" encoding="UTF-8"?>
<svg width="55px" height="55px" viewBox="0 0 55 55" version="1.1" xmlns="http://www.w3.org/2000/svg" xmlns:xlink="http://www.w3.org/1999/xlink">
    <g id="ic-placed" stroke="none" stroke-width="1" fill="none" fill-rule="evenodd">
        <path d="M47.3389831,17.4576271 L41.5254237,17.4576271 C41.0667466,17.4576271 40.6949153,17.0857958 40.6949153,16.6271186 C40.6949153,16.1684415 41.0667466,15.7966102 41.5254237,15.7966102 L49,15.7966102 L49,37.3898305 L7.47457627,37.3898305 L7.47457627,15.7966102 L14.9491525,15.7966102 C15.4078297,15.7966102 15.779661,16.1684415 15.779661,16.6271186 C15.779661,17.0857958 15.4078297,17.4576271 14.9491525,17.4576271 L9.13559322,17.4576271 L9.13559322,35.7288136 L47.3389831,35.7288136 L47.3389831,17.4576271 Z M4.15254237,9.98305085 C3.69386521,9.98305085 3.3220339,9.61121954 3.3220339,9.15254237 C3.3220339,8.69386521 3.69386521,8.3220339 4.15254237,8.3220339 L8.30508475,8.3220339 C8.76376191,8.3220339 9.13559322,8.69386521 9.13559322,9.15254237 C9.13559322,9.61121954 8.76376191,9.98305085 8.30508475,9.98305085 L4.15254237,9.98305085 Z M7.47457627,9.15254237 C7.47457627,8.69386521 7.84640758,8.3220339 8.30508475,8.3220339 C8.76376191,8.3220339 9.13559322,8.69386521 9.13559322,9.15254237 L9.13559322,16.6271186 C9.13559322,17.0857958 8.76376191,17.4576271 8.30508475,17.4576271 C7.84640758,17.4576271 7.47457627,17.0857958 7.47457627,16.6271186 L7.47457627,9.15254237 Z M7.47457627,36.559322 C7.47457627,36.1006449 7.84640758,35.7288136 8.30508475,35.7288136 C8.76376191,35.7288136 9.13559322,36.1006449 9.13559322,36.559322 L9.13559322,42.3728814 C9.13559322,42.8315585 8.76376191,43.2033898 8.30508475,43.2033898 C7.84640758,43.2033898 7.47457627,42.8315585 7.47457627,42.3728814 L7.47457627,36.559322 Z M19.1016949,46.5254237 C19.1016949,45.1495077 17.9860855,44.0338983 16.6101695,44.0338983 C15.2342534,44.0338983 14.1186441,45.1495077 14.1186441,46.5254237 C14.1186441,47.9013398 15.2342534,49.0169492 16.6101695,49.0169492 C17.9860855,49.0169492 19.1016949,47.9013398 19.1016949,46.5254237 Z M20.7627119,46.5254237 C20.7627119,48.8186941 18.9034399,50.6779661 16.6101695,50.6779661 C14.3168991,50.6779661 12.4576271,48.8186941 12.4576271,46.5254237 C12.4576271,44.2321533 14.3168991,42.3728814 16.6101695,42.3728814 C18.9034399,42.3728814 20.7627119,44.2321533 20.7627119,46.5254237 Z M39.0338983,46.5254237 C39.0338983,45.1495077 37.9182889,44.0338983 36.5423729,44.0338983 C35.1664568,44.0338983 34.0508475,45.1495077 34.0508475,46.5254237 C34.0508475,47.9013398 35.1664568,49.0169492 36.5423729,49.0169492 C37.9182889,49.0169492 39.0338983,47.9013398 39.0338983,46.5254237 Z M40.6949153,46.5254237 C40.6949153,48.8186941 38.8356433,50.6779661 36.5423729,50.6779661 C34.2491025,50.6779661 32.3898305,48.8186941 32.3898305,46.5254237 C32.3898305,44.2321533 34.2491025,42.3728814 36.5423729,42.3728814 C38.8356433,42.3728814 40.6949153,44.2321533 40.6949153,46.5254237 Z M8.30508475,43.2033898 C7.84640758,43.2033898 7.47457627,42.8315585 7.47457627,42.3728814 C7.47457627,41.9142042 7.84640758,41.5423729 8.30508475,41.5423729 L44.0169492,41.5423729 C44.4756263,41.5423729 44.8474576,41.9142042 44.8474576,42.3728814 C44.8474576,42.8315585 44.4756263,43.2033898 44.0169492,43.2033898 L8.30508475,43.2033898 Z M47.3389831,16.6271186 C47.3389831,16.1684415 47.7108144,15.7966102 48.1694915,15.7966102 C48.6281687,15.7966102 49,16.1684415 49,16.6271186 L49,36.559322 C49,37.0179992 48.6281687,37.3898305 48.1694915,37.3898305 C47.7108144,37.3898305 47.3389831,37.0179992 47.3389831,36.559322 L47.3389831,16.6271186 Z M4.98305085,9.15254237 C4.98305085,8.235067 4.23950928,7.49152542 3.3220339,7.49152542 C2.40455852,7.49152542 1.66101695,8.235067 1.66101695,9.15254237 C1.66101695,10.0700178 2.40455852,10.8135593 3.3220339,10.8135593 C4.23950928,10.8135593 4.98305085,10.0700178 4.98305085,9.15254237 Z M6.6440678,9.15254237 C6.6440678,10.9873721 5.15686361,12.4745763 3.3220339,12.4745763 C1.48720419,12.4745763 0,10.9873721 0,9.15254237 C0,7.31771267 1.48720419,5.83050847 3.3220339,5.83050847 C5.15686361,5.83050847 6.6440678,7.31771267 6.6440678,9.15254237 Z M18.2711864,16.6271186 C18.2711864,22.1314923 22.7329145,26.5932203 28.2372881,26.5932203 C33.7416618,26.5932203 38.2033898,22.1314923 38.2033898,16.6271186 C38.2033898,11.122745 33.7416618,6.66101695 28.2372881,6.66101695 C22.7329145,6.66101695 18.2711864,11.122745 18.2711864,16.6271186 Z M16.6101695,16.6271186 C16.6101695,10.2053906 21.8155601,5 28.2372881,5 C34.6590161,5 39.8644068,10.2053906 39.8644068,16.6271186 C39.8644068,23.0488467 34.6590161,28.2542373 28.2372881,28.2542373 C21.8155601,28.2542373 16.6101695,23.0488467 16.6101695,16.6271186 Z M21.8920502,17.2651329 C21.5396847,16.971495 21.4920766,16.4478056 21.7857145,16.0954401 C22.0793525,15.7430745 22.6030418,15.6954664 22.9554074,15.9891044 L27.9384582,20.1416467 C28.2908238,20.4352847 28.3384319,20.958974 28.0447939,21.3113396 C27.751156,21.6637051 27.2274667,21.7113133 26.8751011,21.4176753 L21.8920502,17.2651329 Z M28.0275094,21.3314208 C27.7227809,21.6742404 27.1978395,21.7051193 26.8550199,21.4003908 C26.5122003,21.0956623 26.4813214,20.5707208 26.7860499,20.2279012 L33.4301177,12.7533249 C33.7348462,12.4105054 34.2597877,12.3796265 34.6026073,12.684355 C34.9454268,12.9890835 34.9763058,13.514025 34.6715772,13.8568445 L28.0275094,21.3314208 Z" fill="currentColor" fill-rule="nonzero"></path>
    </g>
</svg>
