<?xml version="1.0" encoding="UTF-8"?>
<svg width="55px" height="55px" viewBox="0 0 55 55" version="1.1" xmlns="http://www.w3.org/2000/svg" xmlns:xlink="http://www.w3.org/1999/xlink">
    <g id="ic-started" stroke="none" stroke-width="1" fill="none" fill-rule="evenodd">
        <path d="M51.9949583,34.8681202 C51.9802642,34.7784847 51.9620085,34.6894494 51.9402333,34.6012186 C51.9335167,34.5838579 51.9268083,34.5675465 51.918975,34.5507924 C51.9152083,34.5427842 51.916225,34.5340792 51.9121583,34.5261284 C51.8615073,34.4650294 51.8143698,34.401192 51.7709667,34.3349153 C51.7571333,34.3203579 51.7426833,34.3078661 51.7277333,34.2943415 C51.6964808,34.2689761 51.6633317,34.2459602 51.6285667,34.2254891 C51.6005826,34.2006039 51.5708018,34.1777462 51.5394583,34.1570956 L31.1667083,24.1377432 L31.1667083,14.4641694 L35.333375,14.4641694 C35.6566433,14.464018 35.9506786,14.2800512 36.0878457,13.9921256 C36.2250129,13.7042 36.1805795,13.3642307 35.9738333,13.1197924 L27.6405,3.28372679 C27.6236167,3.26376777 27.5996083,3.25490712 27.5813333,3.2369481 C27.5630583,3.21898908 27.554075,3.19547269 27.5339333,3.17886613 C27.5083851,3.16342136 27.4819522,3.14943912 27.4547667,3.13698908 C27.3656813,3.07647023 27.2645876,3.03517273 27.158125,3.01580876 C27.0538283,2.99473041 26.9462634,2.99473041 26.8419667,3.01580876 C26.7354921,3.03518183 26.6343894,3.07649353 26.5453,3.13703007 C26.5181144,3.1494801 26.4916816,3.16346235 26.4661333,3.17890712 C26.4459917,3.19546449 26.4369667,3.21893171 26.4187333,3.2369399 C26.4005,3.2549481 26.3764167,3.26380876 26.3595667,3.28376777 L18.0262333,13.1198333 C17.8195117,13.3642751 17.7750952,13.7042306 17.9122632,13.9921417 C18.0494312,14.2800528 18.3434532,14.4640111 18.6667083,14.4641694 L22.833375,14.4641694 L22.833375,24.1377432 L2.46065,34.157112 C2.42947101,34.1776826 2.39982609,34.2004181 2.37194167,34.2251448 C2.33693982,34.2457365 2.30357984,34.2689153 2.27215,34.2944809 C2.2573,34.3079891 2.24298333,34.3203497 2.22911667,34.3348579 C2.19599607,34.3731793 2.16672352,34.4145635 2.14170833,34.4584317 C2.12249541,34.4799859 2.10452823,34.5025843 2.08789167,34.5261202 C2.083825,34.5341284 2.08484167,34.5428825 2.081075,34.5509317 C2.07324167,34.5676448 2.066525,34.5838006 2.05981667,34.6010629 C2.04452045,34.6481549 2.03369088,34.6965391 2.02746667,34.7455956 C2.01680919,34.7858093 2.00932582,34.8267727 2.00508333,34.8681202 C2.004775,34.876776 2,34.8840301 2,34.8927104 L2,39.4641694 C2.00489436,39.5027125 2.01271623,39.540841 2.0234,39.578235 C2.02873186,39.637297 2.04067072,39.6956004 2.059,39.7520874 C2.08024372,39.7992723 2.10613687,39.8442962 2.13630833,39.8865137 C2.16149908,39.9328604 2.19142589,39.9765615 2.225625,40.0169399 C2.26811828,40.0576106 2.31498274,40.0936146 2.36539167,40.124317 C2.39515137,40.151077 2.4269867,40.1755145 2.46060833,40.1974071 L26.627275,52.082653 C26.6346,52.0862022 26.6430417,52.084653 26.6503667,52.0880055 C26.8705264,52.1961335 27.1295652,52.1961335 27.349725,52.0880055 C27.35705,52.084653 27.3654917,52.0862022 27.3727167,52.082653 L51.5393833,40.1974071 C51.5728852,40.1754803 51.6046435,40.1510793 51.6343833,40.1244153 C51.684862,40.0936787 51.731803,40.0576484 51.7743833,40.0169563 C51.8369833,39.9331019 51.892714,39.84449 51.94105,39.7519563 C51.9593254,39.6955928 51.9712634,39.6374283 51.97665,39.5785055 C51.9873322,39.5410198 51.9951512,39.5028014 52.0000417,39.4641694 L52.0000417,34.892735 C52.0000417,34.8839809 51.9952583,34.876776 51.9949583,34.8681202 Z M3.66670833,36.2190874 L26.1667083,47.2846612 L26.1667083,50.0230383 L3.66670833,38.9574645 L3.66670833,36.2190874 Z M27.833375,47.2846612 L50.333375,36.2190874 L50.333375,38.9574645 L27.833375,50.0230383 L27.833375,47.2846612 Z M19.5252667,35.1548907 C19.6367292,35.5938779 20.0888881,35.8608703 20.5351917,35.751235 C21.9064583,35.4138333 24.5000417,33.7860956 24.5000417,30.0379399 L24.5000417,13.6444973 C24.5000992,13.4270894 24.4123203,13.2185697 24.2560275,13.0648391 C24.0997347,12.9111085 23.8877397,12.8247686 23.6667083,12.8248252 L20.4456833,12.8248252 L27.0000417,5.08902187 L33.5544,12.8248252 L30.333375,12.8248252 C30.1123437,12.8247686 29.9003487,12.9111085 29.7440558,13.0648391 C29.5877631,13.2185697 29.4999842,13.4270894 29.5000417,13.6444973 L29.5000417,30.0379399 C29.5000417,33.7860956 32.093625,35.4138333 33.4648833,35.7512268 C33.9103526,35.8581949 34.3599834,35.5910651 34.4710416,35.1534588 C34.5820997,34.7158526 34.3128514,34.2722142 33.8685333,34.1607104 C33.8417083,34.1543333 31.1667083,33.4567104 31.1667083,30.0379399 L31.1667083,25.9708006 L49.3055417,34.8915383 L27.0000417,45.8614563 L4.69454167,34.8915383 L22.833375,25.9708006 L22.833375,30.0379399 C22.833375,33.4142842 20.2357167,34.1334973 20.13155,34.1607186 C19.9169932,34.2132682 19.7325013,34.3476094 19.6187642,34.5341133 C19.5050272,34.7206171 19.4713883,34.9439626 19.5252667,35.1548907 Z" fill="currentColor" fill-rule="nonzero"></path>
    </g>
</svg>
