<?xml version="1.0" encoding="utf-8"?>
<!-- Generator: Adobe Illustrator 19.2.1, SVG Export Plug-In . SVG Version: 6.00 Build 0)  -->
<svg version="1.1" id="Ebene_1" xmlns="http://www.w3.org/2000/svg" xmlns:xlink="http://www.w3.org/1999/xlink" x="0px" y="0px"
	 viewBox="0 0 25 29" style="enable-background:new 0 0 25 29;" xml:space="preserve">
<title>31959C48-8DF0-46C7-AD9A-DA2EDC468376</title>
<desc>Created with sketchtool.</desc>
<g id="Configurator">
	<g id="Assets" transform="translate(-599.000000, -245.000000)">
		<g id="Select-button" transform="translate(431.000000, 235.000000)">
			<path id="_xF1ED_" class="st0" d="M192.4,20.5c0.2,0.9,0.2,2-0.1,3.3c-0.9,4.8-4,7.2-9.1,7.2h-0.7c-0.3,0-0.5,0.1-0.7,0.3
				s-0.3,0.4-0.4,0.7l-0.1,0.3l-0.9,5.6l0,0.2c-0.1,0.3-0.2,0.5-0.4,0.7c-0.2,0.2-0.5,0.3-0.7,0.3h-4.1c-0.2,0-0.4-0.1-0.5-0.2
				c-0.1-0.2-0.2-0.4-0.1-0.6c0.1-0.6,0.2-1.5,0.4-2.7c0.2-1.2,0.3-2.1,0.4-2.7c0.1-0.6,0.2-1.5,0.4-2.7c0.2-1.2,0.3-2.1,0.4-2.7
				c0.1-0.4,0.3-0.6,0.7-0.6h2.1c1.4,0,2.7-0.1,3.8-0.3c1.9-0.4,3.4-1.2,4.6-2.3c1.1-1,1.9-2.4,2.5-4c0.3-0.8,0.4-1.5,0.6-2.2
				c0-0.1,0-0.1,0-0.1c0,0,0,0,0.1,0c0,0,0.1,0,0.1,0.1C191.7,18.5,192.2,19.3,192.4,20.5z M189.7,15.9c0,1.2-0.2,2.4-0.7,3.8
				c-0.9,2.5-2.5,4.2-4.9,5.1c-1.2,0.4-2.6,0.7-4.1,0.7c0,0-0.5,0-1.5,0l-1.5,0c-1.1,0-1.7,0.5-1.9,1.6c0,0.1-0.5,2.9-1.4,8.6
				c0,0.1-0.1,0.2-0.2,0.2h-4.8c-0.2,0-0.4-0.1-0.6-0.3c-0.2-0.2-0.2-0.4-0.2-0.6l3.8-23.8c0.1-0.3,0.2-0.6,0.4-0.8
				c0.2-0.2,0.5-0.3,0.8-0.3h9.7c0.4,0,0.9,0.1,1.6,0.2c0.7,0.1,1.3,0.3,1.8,0.5c1.2,0.4,2,1.1,2.6,2
				C189.4,13.6,189.7,14.7,189.7,15.9z"/>
		</g>
	</g>
</g>
</svg>
