<svg xmlns="http://www.w3.org/2000/svg" viewBox="0 0 30 30"><title>placeholder</title><path d="M15,16.4l8.3,9a0.87,0.87,0,0,0,1.3,0,1,1,0,0,0,0-1.4l-8.3-9,8.3-9a1,1,0,0,0,0-1.4,0.87,0.87,0,0,0-1.3,0l-8.3,9-8.3-9a0.87,0.87,0,0,0-1.3,0A1,1,0,0,0,5.4,6l8.3,9L5.4,24a1,1,0,0,0,0,1.4,0.87,0.87,0,0,0,1.3,0Z" transform="translate(0 0)"/><rect width="30" height="1.1"/><rect y="28.9" width="30" height="1.1"/><rect x="-14.45" y="14.45" width="30" height="1.1" transform="translate(15.55 14.45) rotate(90)"/><rect x="14.45" y="14.45" width="30" height="1.1" transform="translate(44.45 -14.45) rotate(90)"/></svg>