<?xml version="1.0" encoding="utf-8"?>
<!-- Generator: Adobe Illustrator 22.0.1, SVG Export Plug-In . SVG Version: 6.00 Build 0)  -->
<svg version="1.1" id="Ebene_1" xmlns="http://www.w3.org/2000/svg" xmlns:xlink="http://www.w3.org/1999/xlink" x="0px" y="0px"
	 viewBox="0 0 24 24" style="enable-background:new 0 0 24 24;" xml:space="preserve">
<path class="st0" d="M17.2,15.1h-1.1l-0.4-0.4c1.3-1.6,2.2-3.6,2.2-5.8c0-4.9-4-8.9-8.9-8.9S0,4,0,8.9s4,8.9,8.9,8.9
	c2.2,0,4.2-0.8,5.8-2.2l0.4,0.4v1.1L22,24l2-2L17.2,15.1z M8.9,15.1c-3.4,0-6.2-2.8-6.2-6.2s2.8-6.2,6.2-6.2s6.2,2.8,6.2,6.2
	S12.3,15.1,8.9,15.1z"/>
</svg>
