<?xml version="1.0" encoding="UTF-8"?>
<svg width="15px" height="20px" viewBox="0 0 15 20" version="1.1" xmlns="http://www.w3.org/2000/svg" xmlns:xlink="http://www.w3.org/1999/xlink">
    <g id="Desktop" stroke="none" stroke-width="1" fill="none" fill-rule="evenodd">
        <path d="M8.19286872,2.38200946 L8.19286872,13.1007752 C8.19286872,13.4860901 7.88266083,13.7984496 7.5,13.7984496 C7.11733917,13.7984496 6.80713128,13.4860901 6.80713128,13.1007752 L6.80713128,2.38200946 L4.74163395,4.46183296 C4.47105189,4.73429177 4.03235168,4.73429177 3.76176961,4.46183296 C3.49118755,4.18937416 3.49118755,3.74763115 3.76176961,3.47517234 L7.01006783,0.204344106 C7.2806499,-0.068114702 7.7193501,-0.068114702 7.98993217,0.204344106 L11.2246161,3.46146365 C11.4951982,3.73392246 11.4951982,4.17566547 11.2246161,4.44812427 C10.9540341,4.72058308 10.5153339,4.72058308 10.2447518,4.44812427 L8.19286872,2.38200946 Z M13.6142626,18.6046512 L13.6142626,7.54793962 L10.6928687,7.54793962 C10.3102079,7.54793962 10,7.23558014 10,6.8502652 C10,6.46495026 10.3102079,6.15259078 10.6928687,6.15259078 L14.3071313,6.15259078 C14.6897921,6.15259078 15,6.46495026 15,6.8502652 L15,19.3023256 C15,19.6876405 14.6897921,20 14.3071313,20 L0.69286872,20 C0.310207892,20 -1.13686838e-13,19.6876405 -1.13686838e-13,19.3023256 L-1.13686838e-13,6.8502652 C-1.13686838e-13,6.46495026 0.310207892,6.15259078 0.69286872,6.15259078 L4.30713128,6.15259078 C4.68979211,6.15259078 5,6.46495026 5,6.8502652 C5,7.23558014 4.68979211,7.54793962 4.30713128,7.54793962 L1.38573744,7.54793962 L1.38573744,18.6046512 L13.6142626,18.6046512 Z" id="ic-share" fill="currentColor" fill-rule="nonzero"></path>
    </g>
</svg>
