<?xml version="1.0" encoding="utf-8"?>
<!-- Generator: Adobe Illustrator 19.2.1, SVG Export Plug-In . SVG Version: 6.00 Build 0)  -->
<svg version="1.1" id="Ebene_1" xmlns="http://www.w3.org/2000/svg" xmlns:xlink="http://www.w3.org/1999/xlink" x="0px" y="0px"
	 viewBox="0 0 18 13" style="enable-background:new 0 0 18 13;" xml:space="preserve">
<title>A15ED984-0E38-4F17-B930-C3C55E5C89F0</title>
<desc>Created with sketchtool.</desc>
<g id="Configurator">
	<g id="Assets" transform="translate(-225.000000, -51.000000)">
		<g id="ic_local_shipping_black_24px" transform="translate(225.000000, 48.000000)">
			<g id="Group">
				<path id="Shape_1_" class="st0" d="M15,6.2h-2.4V3H1.6C0.7,3,0,3.7,0,4.6v8.7h1.6c0,1.3,1.1,2.4,2.4,2.4s2.4-1.1,2.4-2.4h4.7
					c0,1.3,1.1,2.4,2.4,2.4s2.4-1.1,2.4-2.4h1.6v-4L15,6.2z M4,14.5c-0.7,0-1.2-0.5-1.2-1.2c0-0.7,0.5-1.2,1.2-1.2s1.2,0.5,1.2,1.2
					C5.1,13.9,4.6,14.5,4,14.5z M14.6,7.4l1.6,2h-3.5v-2H14.6z M13.5,14.5c-0.7,0-1.2-0.5-1.2-1.2c0-0.7,0.5-1.2,1.2-1.2
					c0.7,0,1.2,0.5,1.2,1.2C14.6,13.9,14.1,14.5,13.5,14.5z"/>
			</g>
		</g>
	</g>
</g>
</svg>
