<?xml version="1.0" encoding="UTF-8" standalone="no"?>
<svg width="18px" height="13px" viewBox="0 0 18 13" version="1.1" xmlns="http://www.w3.org/2000/svg" xmlns:xlink="http://www.w3.org/1999/xlink">
    <!-- Generator: sketchtool 42 (36781) - http://www.bohemiancoding.com/sketch -->
    <title>A15ED984-0E38-4F17-B930-C3C55E5C89F0</title>
    <desc>Created with sketchtool.</desc>
    <defs></defs>
    <g id="Configurator" fill-rule="evenodd">
        <g id="Assets" transform="translate(-225.000000, -51.000000)">
            <g id="ic_local_shipping_black_24px" transform="translate(225.000000, 48.000000)">
                <g id="Group">
                    <polygon id="Shape" points="5 0 24 0 24 19 5 19"></polygon>
                    <path d="M15.0416667,6.16666667 L12.6666667,6.16666667 L12.6666667,3 L1.58333333,3 C0.7125,3 0,3.7125 0,4.58333333 L0,13.2916667 L1.58333333,13.2916667 C1.58333333,14.6058333 2.64416667,15.6666667 3.95833333,15.6666667 C5.2725,15.6666667 6.33333333,14.6058333 6.33333333,13.2916667 L11.0833333,13.2916667 C11.0833333,14.6058333 12.1441667,15.6666667 13.4583333,15.6666667 C14.7725,15.6666667 15.8333333,14.6058333 15.8333333,13.2916667 L17.4166667,13.2916667 L17.4166667,9.33333333 L15.0416667,6.16666667 Z M3.95833333,14.4791667 C3.30125,14.4791667 2.77083333,13.94875 2.77083333,13.2916667 C2.77083333,12.6345833 3.30125,12.1041667 3.95833333,12.1041667 C4.61541667,12.1041667 5.14583333,12.6345833 5.14583333,13.2916667 C5.14583333,13.94875 4.61541667,14.4791667 3.95833333,14.4791667 Z M14.6458333,7.35416667 L16.1975,9.33333333 L12.6666667,9.33333333 L12.6666667,7.35416667 L14.6458333,7.35416667 Z M13.4583333,14.4791667 C12.80125,14.4791667 12.2708333,13.94875 12.2708333,13.2916667 C12.2708333,12.6345833 12.80125,12.1041667 13.4583333,12.1041667 C14.1154167,12.1041667 14.6458333,12.6345833 14.6458333,13.2916667 C14.6458333,13.94875 14.1154167,14.4791667 13.4583333,14.4791667 Z" id="Shape"></path>
                </g>
            </g>
        </g>
    </g>
</svg>
