<?xml version="1.0" encoding="utf-8"?>
<!-- Generator: Adobe Illustrator 19.2.1, SVG Export Plug-In . SVG Version: 6.00 Build 0)  -->
<svg version="1.1" id="Ebene_1" xmlns="http://www.w3.org/2000/svg" xmlns:xlink="http://www.w3.org/1999/xlink" x="0px" y="0px"
	 viewBox="0 0 18 18" style="enable-background:new 0 0 18 18;" xml:space="preserve">
<title>B719266D-CB2F-4571-9ABD-AFEC8A7D79DC</title>
<desc>Created with sketchtool.</desc>
<g id="Configurator">
	<g id="Assets" transform="translate(-389.000000, -121.000000)">
		<g id="Star-ratings" transform="translate(389.000000, 121.000000)">
			<path id="star-copy-3" class="st0" d="M17.7,6.7c0-0.3-0.3-0.5-0.6-0.5l-5.3-0.8l-2.4-5C9.3,0.2,9.1,0,8.9,0S8.4,0.2,8.3,0.4
				l-2.4,5L0.6,6.2C0.3,6.3,0,6.4,0,6.7c0,0.2,0.1,0.4,0.3,0.5l3.9,3.9l-0.9,5.5c0,0.1,0,0.1,0,0.2c0,0.3,0.1,0.5,0.4,0.5
				c0.1,0,0.3-0.1,0.4-0.1l4.8-2.6l4.8,2.6c0.1,0.1,0.3,0.1,0.4,0.1c0.3,0,0.4-0.3,0.4-0.5c0-0.1,0-0.1,0-0.2l-0.9-5.5l3.9-3.9
				C17.6,7.1,17.7,6.9,17.7,6.7L17.7,6.7z"/>
		</g>
	</g>
</g>
</svg>
