<?xml version="1.0" encoding="UTF-8" standalone="no"?>
<svg width="18px" height="18px" viewBox="0 0 18 18" version="1.1" xmlns="http://www.w3.org/2000/svg" xmlns:xlink="http://www.w3.org/1999/xlink">
    <!-- Generator: sketchtool 42 (36781) - http://www.bohemiancoding.com/sketch -->
    <title>C6026A72-2E4C-4594-AE03-B8067A3EAE00</title>
    <desc>Created with sketchtool.</desc>
    <defs></defs>
    <g id="Configurator" stroke="none" stroke-width="1" fill="none" fill-rule="evenodd">
        <g id="Assets" transform="translate(-427.000000, -121.000000)" fill="#CCCCCC">
            <g id="Star-ratings" transform="translate(389.000000, 121.000000)">
                <path d="M55.7172661,6.71317213 C55.7172661,6.38570032 55.3765495,6.25471159 55.121012,6.21104869 L49.7760194,5.41420061 L47.3803554,0.447544809 C47.2845289,0.240145995 47.1035232,0 46.8586331,0 C46.613743,0 46.4327372,0.240145995 46.3369107,0.447544809 L43.9412467,5.41420061 L38.5962541,6.21104869 C38.3300693,6.25471159 38,6.38570032 38,6.71317213 C38,6.90965522 38.1384161,7.09522258 38.2661849,7.23712703 L42.1418369,11.1012944 L41.2261608,16.5591579 C41.2155134,16.635568 41.204866,16.7010624 41.204866,16.7774725 C41.204866,17.0612814 41.3432822,17.3232588 41.6520567,17.3232588 C41.8011202,17.3232588 41.9395363,17.2686802 42.0779525,17.1922701 L46.8586331,14.6161585 L51.6393136,17.1922701 C51.7670824,17.2686802 51.9161459,17.3232588 52.0652095,17.3232588 C52.3739839,17.3232588 52.5017527,17.0612814 52.5017527,16.7774725 C52.5017527,16.7010624 52.5017527,16.635568 52.4911053,16.5591579 L51.5754293,11.1012944 L55.4404338,7.23712703 C55.57885,7.09522258 55.7172661,6.90965522 55.7172661,6.71317213 L55.7172661,6.71317213 Z" id="star-copy-4"></path>
            </g>
        </g>
    </g>
</svg>