<?xml version="1.0" encoding="UTF-8" standalone="no"?>
<svg width="56px" height="38px" viewBox="0 0 56 38" version="1.1" xmlns="http://www.w3.org/2000/svg" xmlns:xlink="http://www.w3.org/1999/xlink">
    <!-- Generator: sketchtool 42 (36781) - http://www.bohemiancoding.com/sketch -->
    <title>1B491203-56DA-4A99-BDE9-229278B3DF9D</title>
    <desc>Created with sketchtool.</desc>
    <defs></defs>
    <g id="Configurator" fill-rule="evenodd">
        <g id="Assets" transform="translate(-90.000000, -112.000000)">
            <g id="ic_cloud_upload_black_24px" transform="translate(90.000000, 107.000000)">
                <g id="Group">
                    <path d="M44.9484375,19.0304167 C43.3688542,11.0163542 36.3304167,5 27.875,5 C21.1617708,5 15.33125,8.80958333 12.4276042,14.3845833 C5.435625,15.1279167 0,21.0513542 0,28.2291667 C0,35.9180208 6.24864583,42.1666667 13.9375,42.1666667 L44.1354167,42.1666667 C50.5466667,42.1666667 55.75,36.9633333 55.75,30.5520833 C55.75,24.4195833 50.9880208,19.4485417 44.9484375,19.0304167 Z M32.5208333,25.90625 L32.5208333,35.1979167 L23.2291667,35.1979167 L23.2291667,25.90625 L16.2604167,25.90625 L27.875,14.2916667 L39.4895833,25.90625 L32.5208333,25.90625 Z" id="Shape"></path>
                </g>
            </g>
        </g>
    </g>
</svg>
